<?xml version="1.0" encoding="UTF-8" standalone="no"?><!DOCTYPE svg PUBLIC "-//W3C//DTD SVG 1.1//EN" "http://www.w3.org/Graphics/SVG/1.1/DTD/svg11.dtd"><svg width="100%" height="100%" viewBox="0 0 2160 3841" version="1.1" xmlns="http://www.w3.org/2000/svg" xmlns:xlink="http://www.w3.org/1999/xlink" xml:space="preserve" xmlns:serif="http://www.serif.com/" style="fill-rule:evenodd;clip-rule:evenodd;stroke-linecap:square;stroke-linejoin:round;stroke-miterlimit:1.5;"><path id="Dark-Portrait" serif:id="Dark Portrait" d="M2160,3840.09l0,-3840l-2160,0l0,3840l2160,0Z" style="fill:none;"/><clipPath id="_clip1"><path d="M2160,3840.09l0,-3840l-2160,0l0,3840l2160,0Z"/></clipPath><g clip-path="url(#_clip1)"><path id="Cord" d="M1080,0.094l0,792.005" style="fill:none;stroke:#fff;stroke-width:10px;"/><g id="Robert-Chrobak" serif:id="Robert Chrobak" transform="matrix(0.686852,0,0,0.686852,284.778,1962.14)"><path d="M641.62,562.517c-13.278,-9.784 -33.894,-19.567 -61.847,-29.351l-81.765,-29.351c-27.254,-9.784 -46.997,-19.219 -59.226,-28.303c-1.049,8.735 1.747,18.169 8.386,28.303l9.958,6.813c33.195,26.207 64.992,45.076 95.392,56.606c36.34,5.591 66.04,4.019 89.102,-4.717Zm-177.156,-108.495c-11.88,1.747 -20.266,3.669 -25.158,5.766c2.096,2.446 4.542,4.892 7.338,7.337c5.241,-4.542 11.181,-8.91 17.82,-13.103Zm142.564,-199.694c23.411,26.207 36.165,51.715 38.261,76.524c5.241,-17.122 4.28,-32.147 -2.883,-45.076c-7.163,-12.928 -18.956,-23.411 -35.378,-31.448Zm-198.122,323.389c-0.349,-5.241 -2.62,-12.754 -6.813,-22.538c-4.194,-9.783 -6.814,-16.946 -7.862,-21.489c-4.892,-25.158 -8.212,-51.976 -9.959,-80.454c-1.747,-28.478 -0.699,-58.965 3.145,-91.461c3.843,-32.496 11.356,-58.528 22.537,-78.095c-6.639,9.085 -12.229,17.995 -16.772,26.73c-5.94,20.267 -10.308,41.756 -13.103,64.468c0,29.002 1.223,63.246 3.669,102.73c2.446,39.485 5.94,69.709 10.483,90.675c4.193,4.892 9.084,8.036 14.675,9.434Zm141.515,-347.499c4.892,0.35 9.784,0.874 14.676,1.573c-18.519,-13.628 -37.038,-23.411 -55.558,-29.351c-18.519,-5.941 -34.418,-6.639 -47.696,-2.097c-4.193,1.398 -8.56,3.494 -13.103,6.29c33.894,-2.097 67.788,5.765 101.681,23.585Zm68.137,145.709l-1.572,1.048l-12.055,17.296l-8.386,8.386l-3.669,3.669c11.531,-6.639 22.188,-13.976 31.972,-22.013c6.639,-9.085 10.657,-18.869 12.055,-29.351c-3.145,4.193 -6.464,8.386 -9.959,12.579l-8.386,8.386Zm-75.999,-137.322c-22.362,-1.398 -44.289,0.349 -65.778,5.241c-21.489,4.892 -39.572,12.928 -54.247,24.11l-2.097,3.669c18.869,-13.977 43.852,-21.577 74.951,-22.8c31.098,-1.223 58.702,3.582 82.812,14.414c-10.133,-9.085 -22.013,-17.297 -35.641,-24.634Zm27.779,3.668c17.471,12.23 30.575,25.683 39.31,40.359c23.761,21.314 29.526,47.521 17.296,78.619c-1.048,2.795 -3.668,7.338 -7.861,13.627l2.096,-2.096c6.639,-8.037 12.055,-15.899 16.248,-23.586c1.048,-17.121 -3.669,-34.942 -14.151,-53.461c-10.483,-18.519 -24.635,-35.466 -42.455,-50.841c-3.494,-1.048 -6.988,-1.922 -10.483,-2.621Zm-49.268,187.639l-24.11,11.007l2.621,-0.524c35.641,-8.736 65.341,-19.393 89.102,-31.972c3.145,-2.446 6.29,-5.067 9.434,-7.862c5.94,-8.037 10.134,-13.977 12.579,-17.821c-22.013,18.52 -51.714,34.244 -89.102,47.172l-0.524,0Zm120.55,136.798c-13.278,7.338 -31.273,11.182 -53.985,11.531c22.363,5.241 47.171,8.212 74.426,8.91c-2.795,-8.036 -8.735,-15.724 -17.82,-23.061l-2.621,2.62Zm-182.397,-106.398l-11.007,7.338c2.446,2.096 5.067,4.018 7.862,5.765c-0.699,-4.193 0.349,-8.561 3.145,-13.103Zm-28.303,21.489l7.338,-7.338c-3.844,-2.795 -6.989,-5.59 -9.435,-8.386l8.386,-8.386c2.796,-2.096 5.766,-3.844 8.91,-5.241c-14.675,1.747 -28.303,4.542 -40.882,8.386c0.35,9.434 8.911,20.092 25.683,31.972c-0.699,-3.844 -0.699,-7.513 0,-11.007Zm152.522,-85.433c-4.543,3.494 -9.435,6.814 -14.676,9.958c16.423,-8.036 31.098,-16.947 44.027,-26.73c3.145,-4.543 5.067,-7.862 5.765,-9.959c7.338,-18.519 8.212,-35.466 2.621,-50.84c1.048,23.411 -8.735,46.472 -29.351,69.185l-8.386,8.386Zm-187.639,-169.818c12.579,-11.182 29.526,-17.646 50.841,-19.393c8.386,-7.688 16.248,-12.754 23.585,-15.2c15.375,-4.892 34.069,-3.057 56.082,5.503c22.014,8.561 42.979,21.577 62.896,39.048c18.17,4.892 32.933,11.968 44.289,21.227c11.356,9.26 18.781,20.966 22.276,35.117c3.494,14.152 0,30.138 -10.483,47.958c-0.699,14.326 -5.591,27.255 -14.676,38.786l-8.386,8.386c-12.229,10.482 -26.031,19.917 -41.406,28.303c-14.326,11.531 -28.39,19.48 -42.192,23.848c-13.803,4.368 -29.439,7.25 -46.91,8.648l-13.628,3.145c-1.747,0.349 -3.668,0.699 -5.765,1.048l-7.338,3.669c-3.145,8.735 0.699,16.772 11.531,24.11c10.832,7.338 25.333,13.627 43.503,18.869l55.558,16.248c18.519,5.241 35.029,11.181 49.53,17.82c14.501,6.639 22.625,13.453 24.372,20.441c13.977,10.483 21.489,21.489 22.538,33.02l-8.386,8.386c-45.076,0 -84.91,-6.639 -119.502,-19.917c-2.097,-0.349 -4.368,-0.698 -6.814,-1.048c-14.326,-2.795 -31.972,-10.308 -52.937,-22.537c-20.965,-12.23 -36.165,-25.508 -45.599,-39.834c-7.338,-4.892 -12.492,-8.474 -15.462,-10.745c-2.97,-2.271 -7.338,-5.853 -13.103,-10.745c-5.766,-4.892 -9.61,-9.521 -11.531,-13.889c-1.922,-4.368 -2.184,-8.823 -0.787,-13.365l8.387,-8.387c19.218,-6.639 43.677,-11.006 73.378,-13.103c3.494,-2.446 7.425,-4.717 11.793,-6.813c4.368,-2.097 8.124,-3.669 11.269,-4.718l13.627,-4.193c5.94,-2.096 10.308,-3.494 13.103,-4.193c26.207,-11.88 45.949,-22.537 59.227,-31.972c27.604,-33.195 31.797,-66.215 12.579,-99.06c-21.315,-19.219 -51.103,-30.4 -89.364,-33.545c-38.262,-3.145 -69.447,2.97 -93.557,18.345c-11.182,19.567 -18.694,45.512 -22.538,77.833c-3.844,32.322 -4.892,62.809 -3.145,91.461c1.747,28.652 5.067,55.383 9.959,80.192c0.698,3.494 3.581,11.618 8.648,24.372c5.066,12.754 7.076,22.45 6.027,29.089l-8.386,8.386c-3.145,0 -6.289,-0.524 -9.434,-1.572c1.048,2.096 2.096,3.669 3.145,4.717l-8.386,8.386c-2.796,-3.494 -5.416,-11.007 -7.862,-22.537c-10.832,-12.58 -16.773,-38.437 -17.821,-77.572c-1.048,-47.521 0.175,-85.957 3.669,-115.308c0,-12.58 0.349,-21.49 1.048,-26.731c1.747,-12.579 5.766,-25.158 12.055,-37.737c9.085,-30.749 22.713,-61.149 40.883,-91.199l8.386,-8.386c-16.074,26.556 -28.478,52.937 -37.214,79.143c3.495,-5.59 7.688,-11.181 12.579,-16.772l3.669,-3.669c1.049,-1.747 2.097,-3.319 3.145,-4.717l8.386,-8.386c23.062,-20.965 56.257,-32.496 99.585,-34.593c-30.05,-12.229 -58.703,-17.296 -85.957,-15.199c-18.52,1.747 -33.719,6.813 -45.6,15.199c-10.482,16.423 -17.733,35.729 -21.751,57.917c-4.018,22.188 -6.464,48.657 -7.338,79.406c-0.874,30.749 -2.009,51.539 -3.407,62.371c-0.699,5.94 -2.009,13.977 -3.931,24.11c-1.922,10.133 -3.319,18.345 -4.193,24.634c-0.873,6.29 -1.747,14.589 -2.62,24.897c-0.874,10.307 -0.612,18.431 0.786,24.372c1.048,9.085 3.669,16.597 7.862,22.537c4.193,5.94 10.308,11.881 18.344,17.821l-8.386,8.386c-8.037,-6.29 -14.064,-12.405 -18.082,-18.345c-4.019,-5.94 -6.727,-13.278 -8.124,-22.013c-1.398,-6.29 -1.66,-14.501 -0.787,-24.634c0.874,-10.134 1.835,-18.345 2.883,-24.635l4.193,-24.634c1.747,-10.133 2.97,-18.17 3.669,-24.11c1.398,-10.832 2.621,-32.146 3.669,-63.944c1.048,-31.797 3.756,-58.877 8.124,-81.24c4.368,-22.363 12.142,-41.756 23.324,-58.178l8.386,-8.386Z" style="fill:#fff;fill-rule:nonzero;stroke:#fff;stroke-width:1.46px;stroke-linecap:butt;stroke-miterlimit:1.41421;"/><path d="M913.12,565.138c20.616,-30.4 31.098,-62.721 31.448,-96.964c-3.844,20.266 -11.531,38.087 -23.062,53.461l-8.386,8.386c-34.593,32.147 -68.661,42.105 -102.206,29.876c-24.809,-9.085 -42.978,-28.129 -54.509,-57.131c-14.676,-35.99 -13.453,-73.553 3.669,-112.688c8.036,-18.519 19.392,-35.641 34.068,-51.365l8.386,-8.386c10.483,-8.735 20.616,-14.85 30.4,-18.344c-19.218,5.94 -39.31,17.646 -60.275,35.117c-34.593,45.424 -45.949,92.421 -34.069,140.991c8.386,34.942 26.906,62.022 55.558,81.24c30.05,20.616 60.45,24.809 91.199,12.579c9.784,-4.193 19.043,-9.784 27.779,-16.772Zm-1.573,2.096c-28.303,27.255 -60.1,35.641 -95.391,25.159c-29.701,-8.736 -53.112,-28.129 -70.234,-58.179c-22.013,-37.737 -26.032,-78.27 -12.055,-121.598c6.989,-20.965 17.995,-41.057 33.02,-60.275l8.386,-8.386c18.869,-16.772 37.301,-28.915 55.296,-36.427c17.995,-7.513 34.069,-10.046 48.22,-7.6c14.152,2.446 26.556,8.735 37.213,18.869c10.658,10.133 18.869,24.372 24.635,42.716c5.765,18.345 8.473,39.397 8.124,63.158c5.59,21.664 5.678,44.464 0.262,68.399c-5.416,23.935 -15.113,45.861 -29.09,65.778l-8.386,8.386Zm2.097,-196.024c-10.483,-16.074 -23.586,-26.382 -39.31,-30.924c-15.724,-4.543 -33.894,-1.747 -54.509,8.386c11.53,-2.097 26.206,-1.572 44.026,1.572c19.568,3.495 36.166,10.483 49.793,20.966Zm23.062,25.682l2.096,3.145c-4.193,-33.545 -15.112,-58.528 -32.758,-74.951c-17.646,-16.423 -39.572,-21.489 -65.778,-15.2l-7.338,7.338c-12.23,3.494 -24.11,9.784 -35.641,18.869c-13.627,15.724 -24.11,32.671 -31.448,50.841c4.193,-5.941 8.736,-11.531 13.627,-16.773l8.387,-8.386c8.386,-5.59 16.946,-9.434 25.682,-11.531c19.917,-15.025 38.174,-21.926 54.772,-20.703c16.597,1.223 30.836,7.862 42.716,19.917c11.881,12.055 20.441,27.866 25.683,47.434Zm-39.834,143.612c6.289,-3.844 12.404,-8.212 18.344,-13.104c11.881,-16.772 19.568,-36.689 23.062,-59.75c-5.591,24.459 -16.597,45.948 -33.02,64.468l-8.386,8.386Zm-92.247,-181.874l0.524,-0.524c-8.037,2.097 -15.899,5.591 -23.586,10.483c-11.531,13.977 -19.218,29.613 -23.062,46.91c-3.843,17.296 -4.105,33.719 -0.786,49.268c3.32,15.549 9.609,29.963 18.869,43.241c9.259,13.278 20.179,23.673 32.758,31.185c12.579,7.513 27.167,11.095 43.765,10.745c16.597,-0.349 32.933,-5.591 49.006,-15.724c15.025,-18.869 24.722,-40.358 29.089,-64.468c4.368,-24.11 3.582,-45.774 -2.358,-64.992c-15.375,-24.809 -39.834,-40.183 -73.379,-46.124c-19.917,-3.843 -36.339,-4.193 -49.268,-1.048c-18.869,23.062 -30.399,45.163 -34.592,66.303c-4.194,21.14 -0.175,40.969 12.055,59.489c12.229,18.519 32.67,34.068 61.323,46.647l-8.386,8.386c-29.352,-13.278 -50.055,-29.526 -62.11,-48.744c-12.055,-19.218 -15.374,-39.921 -9.958,-62.109c5.416,-22.189 18.781,-45.163 40.096,-68.924Z" style="fill:#fff;fill-rule:nonzero;stroke:#fff;stroke-width:1.46px;stroke-linecap:butt;stroke-miterlimit:1.41421;"/><path d="M1036.29,331.376c-2.795,38.785 -1.921,75.125 2.621,109.019l0,-35.117c0,-16.073 -0.873,-40.707 -2.621,-73.902Zm26.207,-107.971c1.398,15.374 2.009,29.351 1.834,41.93c-0.174,12.579 -0.611,30.487 -1.31,53.724c-0.699,23.236 -0.873,40.969 -0.524,53.199c2.446,-16.073 4.542,-33.37 6.29,-51.889c1.747,-18.519 2.358,-38.087 1.834,-58.703c-0.524,-20.616 -3.232,-33.369 -8.124,-38.261Zm-9.959,-1.573c-1.397,-4.892 -3.144,-7.512 -5.241,-7.862c-1.397,-0.349 -2.97,-0.174 -4.717,0.525c-0.699,11.53 -1.048,23.935 -1.048,37.213c2.446,-9.435 5.066,-18.345 7.862,-26.731l3.144,-3.145Zm25.683,225.901c-2.446,13.627 -2.621,27.866 -0.524,42.716c2.096,14.851 6.377,27.692 12.841,38.524c6.464,10.832 14.676,18.519 24.634,23.062c9.959,4.542 21.402,3.669 34.331,-2.621c24.11,-33.544 34.243,-64.119 30.399,-91.723c-5.591,-5.241 -15.112,-7.949 -28.565,-8.124c-13.453,-0.175 -26.119,0.524 -37.999,2.097c-11.881,1.572 -23.586,0.262 -35.117,-3.931Zm2.621,-11.007c6.988,4.542 16.946,6.901 29.875,7.076c12.929,0.174 24.547,-0.437 34.855,-1.835c10.308,-1.397 20.528,-0.873 30.661,1.573c-6.289,-18.17 -18.432,-30.051 -36.427,-35.641c-17.995,-5.591 -34.505,-2.97 -49.53,7.862c-3.844,5.94 -6.989,12.928 -9.434,20.965Zm81.764,104.302c16.423,-20.616 24.809,-39.834 25.158,-57.654l0,-8.387c-3.843,22.713 -15.374,46.823 -34.592,72.33c3.144,-1.747 6.289,-3.843 9.434,-6.289Zm-90.151,-95.916c-6.639,-4.542 -11.356,-11.356 -14.151,-20.441c-3.494,-12.929 -4.63,-44.988 -3.407,-96.178c1.223,-51.19 0.961,-84.647 -0.786,-100.371c-4.892,15.724 -8.91,32.845 -12.055,51.365c0.349,7.687 1.223,25.42 2.621,53.199c1.397,27.779 2.271,49.181 2.62,64.206c0,2.795 -0.087,16.51 -0.262,41.144c-0.175,24.634 -0.087,39.921 0.262,45.862l1.048,2.62c2.796,10.483 6.028,20.267 9.697,29.352c3.669,9.085 8.386,18.169 14.151,27.254c5.766,9.085 11.968,16.074 18.607,20.966c6.639,4.892 14.501,7.075 23.586,6.551c9.085,-0.524 18.519,-4.63 28.303,-12.317l2.096,-2.62c-10.832,6.289 -21.227,8.473 -31.185,6.551c-9.959,-1.922 -17.995,-6.901 -24.11,-14.938c-6.115,-8.036 -11.269,-17.82 -15.462,-29.351c-4.193,-11.531 -6.202,-23.76 -6.028,-36.689c0.175,-12.929 1.66,-24.984 4.455,-36.165Zm4.193,-11.531c2.446,-5.241 5.242,-9.784 8.387,-13.627l8.386,-8.386c10.133,-8.736 21.664,-13.54 34.592,-14.414c12.929,-0.874 24.722,2.446 35.379,9.959c10.657,7.512 18.083,17.907 22.276,31.185c1.048,3.844 1.747,7.513 2.096,11.007c5.94,5.591 8.736,14.152 8.386,25.682c-0.349,11.531 -2.97,22.014 -7.862,31.448c-4.892,9.435 -11.88,19.743 -20.965,30.924l-8.386,8.386c-3.494,3.145 -6.988,5.765 -10.483,7.862l-0.524,0.524l-8.386,8.386c-10.133,9.085 -19.829,14.501 -29.089,16.248c-9.26,1.747 -17.471,0.088 -24.634,-4.979c-7.163,-5.067 -13.453,-11.356 -18.869,-18.869c-5.416,-7.512 -10.57,-16.684 -15.462,-27.517c2.097,11.531 4.805,21.315 8.124,29.352c3.32,8.036 7.95,14.501 13.89,19.393c5.94,4.892 13.016,7.337 21.227,7.337c8.211,0 18.257,-3.057 30.137,-9.172c11.881,-6.115 25.159,-15.636 39.834,-28.565c17.821,-18.869 29.876,-35.641 36.165,-50.316c5.591,-12.929 8.649,-26.382 9.173,-40.359c0.524,-13.976 -1.398,-26.905 -5.766,-38.785c-4.367,-11.88 -11.967,-21.577 -22.799,-29.089c-10.832,-7.513 -24.11,-11.269 -39.834,-11.269c-10.832,0 -24.547,4.455 -41.145,13.365c-16.597,8.91 -27.691,14.239 -33.282,15.986c-0.349,0 -1.223,0.349 -2.621,1.048c0.35,3.844 1.049,7.163 2.097,9.959c2.097,7.338 5.416,13.103 9.958,17.296Zm-31.447,-225.376c0.699,0 1.747,-0.349 3.144,-1.048c1.398,-0.699 2.708,-1.223 3.931,-1.573c1.223,-0.349 2.359,-0.349 3.407,0c2.097,0.699 3.844,3.669 5.242,8.911c11.181,-5.941 17.296,7.512 18.344,40.358c0.699,35.291 -2.621,73.902 -9.958,115.832c-0.35,1.748 -0.524,3.145 -0.524,4.193c-2.796,13.628 -3.145,21.49 -1.049,23.586c1.049,0.35 1.835,0.525 2.359,0.525c0.524,0 1.485,-0.263 2.883,-0.787c1.397,-0.524 2.271,-0.961 2.62,-1.31c5.591,-1.747 16.598,-7.076 33.02,-15.986c16.423,-8.91 30.225,-13.365 41.407,-13.365c15.374,0 28.565,3.843 39.572,11.531c11.006,7.687 18.694,17.383 23.061,29.089c4.368,11.705 6.29,24.547 5.766,38.523c-0.524,13.977 -3.582,27.43 -9.172,40.358c-6.639,15.375 -20.442,34.069 -41.407,56.082l-8.386,8.386c-13.627,11.881 -26.032,21.14 -37.213,27.779c-11.182,6.639 -20.791,10.57 -28.827,11.793c-8.037,1.223 -15.113,0.35 -21.228,-2.62c-6.114,-2.97 -11.094,-7.425 -14.937,-13.366c-3.844,-5.94 -7.076,-13.54 -9.697,-22.799c-2.62,-9.26 -4.542,-18.694 -5.765,-28.303c-1.223,-9.609 -2.009,-20.354 -2.359,-32.234c-7.687,-27.605 -11.967,-60.188 -12.841,-97.751c-0.874,-37.562 1.66,-72.941 7.6,-106.136c-1.048,-21.664 -1.223,-40.882 -0.524,-57.655c-5.94,15.026 -10.133,32.497 -12.579,52.414c-2.446,19.916 -3.495,37.475 -3.145,52.675c0.349,15.199 1.135,34.505 2.358,57.916c1.223,23.411 2.01,40.358 2.359,50.841c0,4.892 -0.087,13.977 -0.262,27.255c-0.175,13.277 -0.175,23.498 0,30.661c0.175,7.163 0.961,15.986 2.359,26.469c1.397,10.482 3.494,19.917 6.289,28.303c3.145,9.434 7.251,17.034 12.317,22.799c5.067,5.766 11.968,11.444 20.703,17.035l-8.386,8.386c-8.735,-5.591 -15.636,-11.356 -20.703,-17.297c-5.066,-5.94 -9.172,-13.452 -12.317,-22.537c-2.795,-8.386 -4.892,-17.908 -6.29,-28.565c-1.397,-10.658 -2.183,-19.48 -2.358,-26.469c-0.175,-6.988 -0.175,-17.121 0,-30.399c0.175,-13.278 0.262,-22.363 0.262,-27.255c0,-10.483 -0.786,-29.089 -2.359,-55.82c-1.572,-26.731 -2.358,-48.045 -2.358,-63.944c0,-15.899 1.922,-34.68 5.765,-56.344c3.844,-21.664 10.133,-40.183 18.869,-55.558l0.524,-0.524l2.097,-3.669l8.386,-8.386Z" style="fill:#fff;fill-rule:nonzero;stroke:#fff;stroke-width:1.46px;stroke-linecap:butt;stroke-miterlimit:1.41421;"/><path d="M1275.29,503.815c-6.29,-32.496 -3.669,-64.468 7.862,-95.916c-6.29,9.783 -10.832,19.567 -13.627,29.351c-5.941,21.664 -4.019,43.852 5.765,66.565Zm158.287,53.985c-2.446,3.844 -5.066,7.338 -7.862,10.483c5.591,-3.145 12.754,-8.037 21.49,-14.676c3.843,-4.542 7.338,-9.085 10.482,-13.627l-7.862,7.862c-5.241,3.843 -10.657,7.163 -16.248,9.958Zm56.606,8.91c9.085,-11.531 14.676,-21.489 16.773,-29.875c1.397,-5.591 2.184,-12.143 2.358,-19.655c0.175,-7.513 -0.611,-14.938 -2.358,-22.276c-1.747,-7.337 -4.892,-12.491 -9.435,-15.461c-4.542,-2.971 -10.832,-2.534 -18.868,1.31c-6.29,8.037 -13.715,20.441 -22.276,37.213c-8.561,16.772 -14.588,27.779 -18.082,33.02c5.94,-2.446 11.705,-5.765 17.296,-9.958l4.193,-4.193c6.289,-10.483 11.531,-23.062 15.724,-37.738l8.386,-8.386c0.699,11.182 -4.543,23.761 -15.724,37.738c-5.241,8.386 -11.531,16.248 -18.869,23.586l-8.386,8.386c-9.434,6.988 -17.121,12.229 -23.062,15.724l-3.144,3.144c-13.278,8.037 -28.827,10.658 -46.648,7.862c-3.145,-0.698 -6.115,-1.397 -8.91,-2.096c-8.736,-1.398 -17.296,-4.018 -25.683,-7.862c21.665,15.025 47.347,21.489 77.048,19.393c29.002,-1.747 55.557,-11.706 79.667,-29.876Zm-163.004,-223.803c16.423,-13.278 33.37,-22.014 50.841,-26.207c17.471,-4.193 32.321,-4.193 44.551,0c19.917,0 36.951,4.892 51.102,14.676c14.152,9.783 22.101,22.625 23.848,38.523c1.747,15.899 -5.241,33.807 -20.965,53.724l-8.386,8.386c-30.749,29.351 -71.282,42.804 -121.598,40.358c-3.494,0 -6.465,0.349 -8.911,1.048c-0.349,12.579 0.263,23.673 1.835,33.282c1.572,9.609 4.63,18.607 9.172,26.993c4.543,8.386 11.531,14.676 20.965,18.869c9.435,4.193 21.14,5.94 35.117,5.241c10.832,-0.349 20.616,-2.096 29.352,-5.241c2.795,-4.892 6.813,-12.492 12.055,-22.8c5.241,-10.308 10.133,-19.305 14.675,-26.993c4.543,-7.687 9.609,-14.501 15.2,-20.441l8.386,-8.386c8.386,-4.542 15.112,-5.503 20.179,-2.883c5.067,2.621 8.474,7.6 10.221,14.938c1.747,7.338 2.62,14.851 2.62,22.538c0,7.687 -0.699,14.326 -2.096,19.917c-2.446,8.735 -9.435,20.266 -20.965,34.592l-8.387,8.386c-25.158,20.267 -53.111,31.448 -83.86,33.545c-25.508,1.747 -47.696,-2.621 -66.565,-13.103c-18.869,-10.483 -33.544,-25.333 -44.027,-44.552c-13.627,-14.326 -23.411,-30.574 -29.351,-48.744c-5.591,-17.82 -5.94,-35.466 -1.049,-52.937c3.844,-13.977 11.881,-28.478 24.11,-43.503c8.037,-19.567 19.219,-36.514 33.545,-50.84l8.386,-8.386Zm-6.29,6.813c-10.832,12.23 -19.567,26.207 -26.206,41.931l13.627,-14.676l8.386,-8.386c27.954,-24.809 51.889,-40.358 71.806,-46.648c-23.062,1.398 -45.599,10.658 -67.613,27.779Zm112.164,88.054c-9.784,9.085 -22.363,17.122 -37.737,24.11c29.701,-4.542 54.859,-15.549 75.475,-33.02c11.531,-14.326 17.733,-28.303 18.606,-41.93c0.874,-13.628 -2.446,-25.159 -9.958,-34.593c-7.513,-9.434 -17.908,-16.598 -31.186,-21.489c7.687,7.337 12.929,15.986 15.724,25.944c2.795,9.958 2.359,21.402 -1.31,34.331c-3.669,12.928 -10.745,25.682 -21.228,38.261l-8.386,8.386Zm3.145,-3.669c9.434,-12.229 15.811,-24.459 19.131,-36.689c3.319,-12.23 3.581,-23.062 0.786,-32.496c-2.795,-9.434 -7.862,-17.733 -15.2,-24.896c-7.338,-7.163 -16.248,-12.143 -26.73,-14.938c-11.531,-0.349 -22.887,1.398 -34.069,5.241c-19.218,5.941 -42.105,20.616 -68.661,44.027c-7.687,8.037 -13.627,14.676 -17.82,19.917c-9.435,22.363 -13.89,46.036 -13.366,71.02c0.524,24.984 5.853,47.609 15.986,67.875c-9.784,-24.46 -11.094,-51.714 -3.931,-81.764c7.163,-30.051 20.529,-55.384 40.096,-75.999l8.386,-8.386c27.604,-23.412 53.986,-33.021 79.144,-28.828c18.869,3.145 30.225,12.579 34.068,28.303c4.892,19.917 -4.367,42.28 -27.778,67.089l-8.387,8.386c-6.639,5.591 -13.103,10.308 -19.392,14.152c13.976,-5.94 26.556,-13.278 37.737,-22.014Zm-93.819,-45.599c-8.386,12.579 -11.706,26.731 -9.959,42.454c2.097,22.713 13.977,33.545 35.641,32.497c1.398,0 2.621,-0.175 3.669,-0.525c17.122,-3.843 34.243,-12.753 51.365,-26.73c22.363,-25.857 29.176,-48.395 20.441,-67.613c-6.989,-15.375 -20.965,-23.062 -41.931,-23.062c-21.664,0 -43.677,9.085 -66.04,27.255c-13.278,15.724 -23.411,34.156 -30.4,55.296c-6.988,21.14 -9.958,41.755 -8.91,61.847c1.048,20.092 7.6,38.349 19.655,54.772c12.055,16.423 29.089,27.255 51.103,32.496c12.579,2.096 24.983,1.922 37.213,-0.524c5.591,-1.049 11.706,-3.32 18.345,-6.814c2.446,-3.145 4.892,-6.639 7.337,-10.483c-9.783,3.844 -20.965,6.115 -33.544,6.814c-14.326,0.699 -26.294,-1.223 -35.903,-5.765c-9.609,-4.543 -16.597,-11.269 -20.965,-20.179c-4.368,-8.911 -7.251,-18.345 -8.648,-28.303c-1.398,-9.959 -1.747,-21.577 -1.048,-34.855l8.386,-8.386c0.349,-0.35 0.873,-0.699 1.572,-1.048c-9.085,-4.892 -14.326,-14.327 -15.724,-28.303c-1.048,-9.784 -0.524,-18.17 1.572,-25.159c2.097,-6.988 5.941,-14.326 11.531,-22.013l8.386,-8.386l7.862,-5.766c2.796,-2.096 4.368,-3.232 4.718,-3.407c0.349,-0.174 1.31,-0.786 2.882,-1.834c1.573,-1.048 2.621,-1.66 3.145,-1.834c0.524,-0.175 2.359,-0.961 5.503,-2.359c3.145,-1.398 6.465,-2.97 9.959,-4.717l-8.386,8.386c-2.097,1.048 -4.193,2.009 -6.29,2.883c-2.096,0.873 -3.669,1.572 -4.717,2.096c-1.048,0.524 -2.096,0.961 -3.145,1.31c-1.048,0.35 -1.921,0.787 -2.62,1.311c-0.699,0.524 -1.223,0.873 -1.573,1.048c-0.349,0.175 -0.961,0.524 -1.834,1.048c-0.874,0.524 -1.485,0.961 -1.835,1.311c-0.349,0.349 -1.31,1.048 -2.882,2.096c-1.573,1.048 -2.883,2.097 -3.931,3.145Z" style="fill:#fff;fill-rule:nonzero;stroke:#fff;stroke-width:1.46px;stroke-linecap:butt;stroke-miterlimit:1.41421;"/><path d="M1605.5,454.022c-2.446,34.593 -3.669,63.595 -3.669,87.006l0,9.958c0,2.446 0.175,6.814 0.524,13.104c0.35,6.289 0.961,11.356 1.835,15.199c0.873,3.844 2.009,7.95 3.407,12.317c1.397,4.368 3.407,7.513 6.027,9.435c2.621,1.922 5.678,2.533 9.173,1.834c-2.446,-2.795 -5.067,-16.248 -7.862,-40.358c-2.097,-7.338 -3.145,-18.17 -3.145,-32.496c-2.446,-23.411 -4.543,-48.744 -6.29,-75.999Zm26.731,118.454l-2.621,2.62c-1.048,0.699 -2.271,1.049 -3.669,1.049c1.398,7.337 2.621,12.579 3.669,15.724c1.398,-5.591 2.271,-12.055 2.621,-19.393Zm15.724,-184.494c-6.29,17.121 -9.784,38.174 -10.483,63.157c-0.699,24.984 -0.175,46.91 1.573,65.779c0.349,-2.446 0.524,-4.717 0.524,-6.814c-3.495,-34.592 -1.922,-64.643 4.717,-90.15c0.699,-11.881 1.922,-22.538 3.669,-31.972Zm3.145,-15.724c0.698,-1.398 1.223,-2.97 1.572,-4.717c-4.892,8.036 -9.959,17.471 -15.2,28.303l-8.386,8.386c0,-1.398 0.874,-9.784 2.621,-25.158c1.747,-15.375 2.358,-29.264 1.834,-41.669c-0.524,-12.404 -3.057,-21.052 -7.6,-25.944c-4.542,15.025 -8.561,35.641 -12.055,61.847c-0.349,19.218 0.524,46.124 2.621,80.716c2.096,34.593 3.145,52.937 3.145,55.034l0,13.103c1.048,12.23 2.271,23.062 3.669,32.496c1.747,7.688 4.542,12.055 8.386,13.104l0.524,-1.573c0,-3.494 -0.175,-8.299 -0.524,-14.413c-0.35,-6.115 -0.524,-10.57 -0.524,-13.366c0,-5.591 -0.35,-16.423 -1.049,-32.496c-0.699,-16.073 -0.961,-28.303 -0.786,-36.689c0.175,-8.386 0.786,-19.131 1.835,-32.234c1.048,-13.103 3.232,-24.809 6.551,-35.117c3.32,-10.308 7.775,-20.179 13.366,-29.613Zm23.585,-42.979c-3.494,4.543 -6.464,9.784 -8.91,15.724l2.621,-3.145l8.386,-8.386c3.844,-3.494 7.687,-6.464 11.531,-8.91c-4.892,0.699 -9.435,2.271 -13.628,4.717Zm-34.068,228.521c0,15.724 -2.621,28.653 -7.862,38.786c2.446,1.048 6.988,0.174 13.627,-2.621c2.796,-3.145 4.543,-6.29 5.242,-9.434c1.397,-2.446 1.747,-6.377 1.048,-11.793c-0.699,-5.416 -1.31,-9.173 -1.835,-11.269c-0.524,-2.097 -1.659,-5.853 -3.406,-11.269c-1.747,-5.416 -2.796,-9.172 -3.145,-11.269c-1.048,6.989 -2.271,13.278 -3.669,18.869Zm26.206,-203.887c-2.795,3.494 -5.241,6.989 -7.337,10.483c-2.097,8.037 -3.844,17.296 -5.242,27.779c3.495,-6.989 7.688,-13.103 12.579,-18.345l8.387,-8.386c3.843,-0.349 7.949,2.271 12.317,7.862c4.367,5.591 8.298,11.531 11.793,17.821c3.494,6.289 8.036,11.268 13.627,14.937c5.591,3.669 11.531,3.407 17.82,-0.786c6.639,-9.784 10.308,-20.441 11.007,-31.972c-1.398,3.145 -2.97,6.115 -4.717,8.91l-8.386,8.386c-5.591,4.193 -10.395,5.242 -14.414,3.145c-4.018,-2.096 -7.163,-5.853 -9.434,-11.269c-2.271,-5.416 -5.067,-10.919 -8.386,-16.51c-3.32,-5.59 -7.076,-9.783 -11.269,-12.579c-4.193,-2.795 -10.308,-2.621 -18.345,0.524Zm6.29,-7.338c8.736,-4.193 15.986,-4.28 21.751,-0.262c5.766,4.019 9.959,9.522 12.58,16.51c2.62,6.989 5.94,13.104 9.958,18.345c4.018,5.241 8.823,6.639 14.414,4.193c6.639,-14.326 6.726,-27.604 0.262,-39.834c-6.465,-12.23 -16.51,-19.393 -30.138,-21.489c-9.085,0.699 -18.519,5.066 -28.303,13.103c-3.494,4.193 -6.814,8.561 -9.958,13.103c-1.049,2.796 -1.922,5.766 -2.621,8.911c1.048,-1.398 2.271,-2.796 3.669,-4.193l8.386,-8.387Zm-49.792,260.493c-15.724,11.182 -25.333,1.573 -28.828,-28.827c-0.698,-6.988 -1.048,-16.597 -1.048,-28.827c0,-43.328 3.145,-91.548 9.435,-144.66c-1.748,-35.641 -1.922,-55.733 -0.525,-60.275l6.814,-6.814c1.747,-12.579 4.543,-22.363 8.386,-29.351l8.386,-8.386c1.049,0 1.922,0.175 2.621,0.524l2.096,-2.097l-1.048,2.097c2.446,1.048 4.543,2.883 6.29,5.503c1.747,2.621 3.057,6.203 3.931,10.745c0.873,4.542 1.485,8.736 1.834,12.579c0.35,3.844 0.35,9.172 0,15.986c-0.349,6.814 -0.699,11.793 -1.048,14.938c-0.349,3.145 -0.874,8.299 -1.572,15.462c-0.699,7.163 -1.049,11.094 -1.049,11.793c5.94,-10.832 11.881,-20.441 17.821,-28.828c4.193,-11.53 9.434,-20.79 15.724,-27.778l8.386,-8.387c9.784,-5.94 19.917,-8.036 30.399,-6.289c11.531,-1.048 21.053,2.795 28.565,11.531c7.513,8.735 11.182,20.091 11.007,34.068c-0.175,13.977 -4.63,27.08 -13.365,39.31l-8.386,8.386c-6.989,6.989 -13.628,9.172 -19.917,6.552c-6.29,-2.621 -11.182,-6.989 -14.676,-13.104c-3.494,-6.114 -7.6,-12.491 -12.317,-19.13c-4.717,-6.639 -8.823,-9.959 -12.317,-9.959c-7.338,10.133 -12.929,22.713 -16.772,37.738c-1.048,11.181 -1.922,27.167 -2.621,47.958c-0.699,20.79 -1.223,34.854 -1.572,42.192c0.699,7.338 1.572,14.326 2.62,20.965c0.699,3.844 2.272,9.697 4.718,17.559c2.446,7.862 4.105,13.889 4.979,18.082c0.873,4.193 0.786,10.133 -0.262,17.821c-0.699,1.747 -1.573,3.581 -2.621,5.503c-1.048,1.922 -1.834,3.232 -2.358,3.931c-0.525,0.699 -1.835,2.096 -3.931,4.193l-3.669,3.669l-8.386,8.386c-6.989,2.795 -11.531,3.844 -13.628,3.145l-2.096,2.096Z" style="fill:#fff;fill-rule:nonzero;stroke:#fff;stroke-width:1.46px;stroke-linecap:butt;stroke-miterlimit:1.41421;"/><path d="M1888.53,583.482c-9.085,-13.627 -16.074,-31.273 -20.966,-52.937c-2.096,-10.482 -4.542,-31.884 -7.337,-64.206c-2.796,-32.321 -4.892,-65.079 -6.29,-98.274c-0.349,3.145 -1.485,8.997 -3.407,17.558c-1.922,8.561 -2.883,14.938 -2.883,19.131c-0.349,14.676 -0.611,32.671 -0.786,53.985c-0.174,21.315 1.835,43.765 6.028,67.351c4.193,23.586 10.308,39.223 18.344,46.91c4.543,4.892 10.308,8.386 17.297,10.482Zm87.529,-47.695c-5.59,17.471 -11.53,31.447 -17.82,41.93c5.94,-2.446 11.706,-5.94 17.296,-10.483c4.543,-6.639 6.814,-13.19 6.814,-19.654c0,-6.465 -2.096,-10.396 -6.29,-11.793Zm-42.978,38.785c-6.29,5.591 -12.055,9.435 -17.297,11.531c14.327,0 26.906,-2.096 37.738,-6.289c7.338,-14.676 12.928,-29.526 16.772,-44.552c-3.145,0.699 -6.639,2.446 -10.483,5.242c-0.698,1.397 -3.406,5.154 -8.124,11.269c-4.717,6.114 -8.124,10.919 -10.22,14.413l-8.386,8.386Zm-4.193,-250.534c-4.193,0 -10.57,0.349 -19.131,1.048c-8.561,0.699 -14.938,1.136 -19.131,1.31c-4.193,0.175 -8.735,-0.611 -13.627,-2.358c0.349,5.94 1.223,10.308 2.62,13.103c0.699,2.097 2.272,3.232 4.718,3.407c2.446,0.175 5.503,-0.349 9.172,-1.572c3.669,-1.223 7.163,-2.534 10.483,-3.931c3.319,-1.398 7.599,-3.32 12.841,-5.766c5.241,-2.446 9.259,-4.193 12.055,-5.241Zm20.965,262.065c-9.434,4.193 -20.092,6.814 -31.972,7.862c10.133,3.494 20.791,0.874 31.972,-7.862Zm-35.641,-10.483c-0.349,0 -1.485,0.263 -3.407,0.787c-1.922,0.524 -3.407,0.961 -4.455,1.31c7.338,4.892 16.947,2.795 28.827,-6.29c2.097,-3.144 5.242,-7.425 9.435,-12.841c4.193,-5.416 7.163,-9.521 8.91,-12.317l8.386,-8.386c3.494,-3.494 6.814,-6.115 9.958,-7.862c1.398,-6.639 1.835,-11.793 1.311,-15.462c-0.524,-3.669 -2.359,-6.027 -5.504,-7.075c-3.144,-1.049 -8.036,0.873 -14.675,5.765c-3.494,4.892 -8.212,13.715 -14.152,26.469c-5.94,12.753 -11.356,21.926 -16.248,27.516l-8.386,8.386Zm18.869,-225.376c8.735,-10.482 11.705,-17.82 8.91,-22.013c-2.795,-1.398 -7.949,-0.786 -15.462,1.834c-7.512,2.621 -14.85,5.766 -22.013,9.435c-7.163,3.669 -14.152,6.464 -20.966,8.386c-6.813,1.922 -10.919,1.135 -12.317,-2.359c-1.397,-3.494 -2.096,-8.561 -2.096,-15.2c0,-6.639 0.437,-15.724 1.31,-27.254c0.874,-11.531 1.311,-19.743 1.311,-24.635c-0.35,-13.277 -1.223,-23.76 -2.621,-31.447c-1.048,-3.145 -2.446,-5.591 -4.193,-7.338c-4.543,32.146 -5.067,81.939 -1.573,149.377c3.495,67.438 7.688,111.815 12.58,133.129l3.144,13.628c-5.94,-27.255 -9.521,-56.869 -10.744,-88.841c-1.223,-31.972 0.786,-52.675 6.027,-62.109l1.048,-1.048c0.35,-1.747 0.874,-3.32 1.573,-4.717l8.386,-8.387c3.494,0 6.639,-0.174 9.434,-0.524c19.917,-9.085 32.671,-15.724 38.262,-19.917Zm-4.193,4.718c-4.892,4.542 -11.007,8.735 -18.345,12.579c8.037,-2.446 17.122,-6.814 27.255,-13.104c2.795,-4.193 4.717,-8.386 5.765,-12.579l1.049,-4.193c-2.097,2.796 -4.543,5.766 -7.338,8.91l-8.386,8.387Zm-77.047,-130.509c-2.446,10.483 -3.669,23.236 -3.669,38.262c0,1.397 0.262,4.28 0.786,8.648c0.524,4.367 0.873,7.338 1.048,8.91c0.175,1.572 0.437,4.28 0.786,8.124c0.35,3.844 0.524,6.814 0.524,8.91c0,2.097 0.088,4.805 0.262,8.124c0.175,3.32 0.175,6.202 0,8.648c-0.174,2.446 -0.436,5.154 -0.786,8.124c-0.349,2.97 -0.873,5.678 -1.572,8.124l-8.386,8.386c-2.796,1.748 -6.29,2.796 -10.483,3.145c-4.193,0.35 -8.036,0.175 -11.531,-0.524c-3.494,-0.699 -8.036,-1.747 -13.627,-3.145c-5.591,-1.397 -9.609,-2.446 -12.055,-3.144c1.398,6.988 5.241,11.793 11.531,14.413c6.289,2.621 12.754,3.494 19.393,2.621c6.639,-0.874 12.928,-2.009 18.868,-3.407c5.94,-1.398 9.085,-2.097 9.435,-2.097l1.048,1.049c-1.747,-61.848 0.524,-98.712 6.814,-110.592l4.717,-4.717c-3.145,-6.639 -7.513,-9.26 -13.103,-7.862Zm-13.104,104.302c-4.892,2.097 -10.657,3.145 -17.296,3.145c8.735,2.096 15.549,2.62 20.441,1.572c0.699,-2.795 1.048,-5.765 1.048,-8.91l-4.193,4.193Zm-71.806,-2.621c6.29,-3.843 13.977,-5.765 23.062,-5.765c9.085,0 17.296,0.786 24.634,2.359c7.338,1.572 15.549,1.659 24.634,0.262c0.699,0 1.049,-8.561 1.049,-25.683l-0.524,-26.206c-1.398,-11.881 -2.097,-21.49 -2.097,-28.828l5.241,-5.241c0.699,-3.145 1.398,-6.115 2.097,-8.91l8.386,-8.386c12.23,-8.736 20.266,-2.446 24.11,18.869c2.446,6.639 3.319,17.121 2.621,31.447c1.048,27.605 2.271,42.28 3.669,44.027c2.445,3.844 13.365,4.892 32.758,3.145c19.392,-1.747 30.487,-0.699 33.282,3.145c3.145,1.747 3.844,6.115 2.096,13.103c-1.747,6.639 -5.59,12.929 -11.53,18.869l-8.386,8.386c-16.074,10.483 -31.099,16.423 -45.076,17.82l-4.193,2.097c-1.048,11.531 -1.485,20.79 -1.31,27.779c0.175,6.988 0.786,17.296 1.834,30.924c1.049,13.627 1.573,21.489 1.573,23.585l0,15.724c0,8.386 0.262,16.86 0.786,25.421c0.524,8.56 1.136,16.51 1.834,23.848c5.242,23.411 10.658,36.689 16.248,39.834c3.495,2.096 8.911,2.096 16.249,0c2.795,-3.844 7.075,-12.055 12.841,-24.635c5.765,-12.579 11.269,-21.664 16.51,-27.254l8.386,-8.386c11.531,-8.736 18.869,-10.57 22.013,-5.504c3.145,5.067 2.796,13.54 -1.048,25.42c4.543,-0.698 7.862,0.699 9.959,4.194c2.096,3.494 2.446,8.211 1.048,14.151c-1.398,5.94 -4.368,11.706 -8.91,17.296l-8.386,8.386c-6.639,5.591 -13.453,10.134 -20.442,13.628l-4.193,4.193c-18.519,17.471 -35.291,19.043 -50.316,4.717c-15.375,-0.699 -26.905,-4.892 -34.593,-12.579c-7.687,-8.037 -13.627,-23.848 -17.82,-47.434c-4.193,-23.586 -6.202,-45.949 -6.028,-67.089c0.175,-21.14 0.262,-39.047 0.262,-53.723c0.35,-3.844 1.748,-11.88 4.193,-24.11c2.446,-12.23 3.32,-21.315 2.621,-27.255c-0.349,-4.193 -1.048,-6.464 -2.096,-6.813l-9.959,2.096c-6.988,1.398 -14.239,2.446 -21.751,3.145c-7.513,0.699 -14.239,-0.961 -20.179,-4.979c-5.94,-4.019 -8.561,-10.92 -7.862,-20.704l5.241,-5.241c-10.483,-1.048 -19.218,-0.175 -26.207,2.621c-3.494,7.687 -2.97,13.889 1.573,18.606c4.542,4.718 11.88,8.998 22.013,12.842l-8.386,8.386c-5.241,-2.097 -9.609,-4.193 -13.103,-6.29c-3.494,-2.096 -6.552,-4.63 -9.172,-7.6c-2.621,-2.97 -3.669,-6.377 -3.145,-10.22c0.524,-3.844 2.359,-8.212 5.503,-13.104l8.386,-8.386Z" style="fill:#fff;fill-rule:nonzero;stroke:#fff;stroke-width:1.46px;stroke-linecap:butt;stroke-miterlimit:1.41421;"/><path d="M323.211,809.383c25.158,-9.435 51.015,-14.152 77.571,-14.152l11.531,0c-24.809,-5.94 -54.51,-1.223 -89.102,14.152Zm117.405,253.155l-11.531,11.006l19.917,-15.199c21.315,-23.411 29.002,-34.069 23.062,-31.972c-1.048,0.349 -2.446,1.048 -4.193,2.096l-18.869,25.683l-7.338,7.337l22.014,-29.875l8.386,-8.386c9.784,-6.988 12.23,-6.988 7.338,0c-5.591,8.735 -15.025,19.917 -28.303,33.544l-8.386,8.386l-10.483,7.862c21.315,-11.531 37.563,-20.091 48.744,-25.682c0.35,0 1.048,-0.524 2.097,-1.572c1.048,-1.049 1.834,-1.66 2.358,-1.835c0.524,-0.175 1.136,-0.087 1.835,0.262c0.349,2.796 0.699,5.154 1.048,7.076c0.349,1.922 -0.349,4.28 -2.097,7.076l-3.668,7.338c-1.049,1.747 -2.621,3.843 -4.718,6.289l-5.765,6.29c-1.398,1.747 -3.232,3.669 -5.503,5.765c-2.272,2.097 -3.757,3.494 -4.456,4.193c15.026,-15.025 20.616,-26.905 16.773,-35.641c-0.35,-0.699 -0.787,-0.873 -1.311,-0.524c-0.524,0.35 -1.31,0.961 -2.358,1.835c-1.049,0.873 -1.922,1.485 -2.621,1.834c-10.483,4.892 -29.875,15.2 -58.178,30.924c-9.435,7.687 -18.52,13.977 -27.255,18.868l-5.242,2.621c-24.808,14.676 -47.87,23.586 -69.185,26.731c-1.747,0.349 -3.669,0.524 -5.765,0.524c-21.664,6.289 -41.057,8.735 -58.179,7.338c17.821,6.639 35.991,9.783 54.51,9.434c18.519,-0.349 37.737,-3.844 57.654,-10.483c19.917,-6.639 38.174,-14.5 54.772,-23.585c16.597,-9.085 32.059,-19.044 46.385,-29.876l-8.386,8.386c-15.025,11.531 -31.71,22.014 -50.054,31.448c-18.345,9.434 -37.738,17.384 -58.179,23.848c-20.441,6.464 -41.231,9.26 -62.371,8.386c-21.14,-0.873 -40.096,-6.202 -56.868,-15.986c-5.94,-3.844 -11.531,-7.862 -16.772,-12.055c-3.844,-2.096 -7.688,-4.368 -11.531,-6.814c-22.713,-16.422 -33.021,-38.436 -30.924,-66.04c-8.736,-24.459 -9.085,-51.19 -1.048,-80.192c6.289,-22.013 15.986,-42.542 29.089,-61.585c13.103,-19.044 29.613,-38.699 49.53,-58.965l1.049,-1.048c-37.388,39.484 -61.149,77.222 -71.282,113.212c-3.494,12.928 -5.416,25.333 -5.766,37.213c5.242,-42.629 20.791,-80.192 46.648,-112.688l8.386,-8.386c15.025,-12.579 30.574,-21.227 46.648,-25.944c16.073,-4.718 34.243,-7.6 54.509,-8.649c29.002,-17.471 57.13,-29.526 84.385,-36.165c10.832,-2.446 22.713,-3.669 35.641,-3.669c-1.747,-2.445 -4.193,-4.367 -7.338,-5.765c-3.144,-1.398 -6.901,-2.271 -11.268,-2.621c-4.368,-0.349 -8.037,-0.611 -11.007,-0.786c-2.97,-0.175 -7.163,-0.175 -12.579,0c-5.416,0.175 -8.823,0.262 -10.221,0.262c-41.232,0 -81.59,11.706 -121.074,35.117c-8.736,5.94 -17.296,12.23 -25.682,18.869l5.765,-5.766c-9.434,6.639 -18.869,13.977 -28.303,22.014c-28.303,33.894 -47.521,63.769 -57.654,89.626c-11.881,30.05 -17.471,62.546 -16.773,97.488c0.35,23.062 4.892,42.804 13.628,59.227c9.085,16.423 20.878,28.565 35.379,36.427c14.501,7.862 31.098,13.278 49.792,16.248c18.694,2.97 38.174,3.145 58.441,0.524c20.266,-2.62 40.358,-6.726 60.275,-12.317c19.917,-5.59 38.698,-12.404 56.344,-20.441c17.645,-8.036 32.932,-16.772 45.861,-26.206l-8.386,8.386c-12.929,9.085 -28.128,17.733 -45.599,25.944c-17.471,8.212 -36.253,15.113 -56.344,20.703c-20.092,5.591 -40.271,9.609 -60.538,12.055c-20.266,2.446 -39.746,2.184 -58.44,-0.786c-18.694,-2.97 -35.292,-8.386 -49.792,-16.248c-14.501,-7.862 -26.207,-19.917 -35.117,-36.165c-8.91,-16.248 -13.54,-35.903 -13.89,-58.965c-0.349,-34.942 5.242,-67.438 16.772,-97.488c10.483,-26.206 30.924,-57.654 61.324,-94.343l8.386,-8.386c18.17,-15.375 35.641,-28.129 52.413,-38.262c15.025,-10.133 29.701,-18.694 44.027,-25.682c14.326,-6.989 29.788,-12.754 46.385,-17.297c16.598,-4.542 32.671,-5.154 48.22,-1.834c15.55,3.319 29.264,10.745 41.145,22.275l-2.621,2.621c0,0.699 0.175,1.398 0.524,2.097c20.965,2.446 26.906,11.356 17.821,26.73l-8.387,8.386c-12.579,9.435 -26.468,15.55 -41.668,18.345c-15.2,2.795 -32.059,4.368 -50.578,4.717c-18.869,0.35 -34.244,2.097 -46.124,5.241c-18.869,4.892 -40.183,16.773 -63.944,35.641c-32.845,37.388 -50.841,78.795 -53.985,124.219c-1.049,16.772 0.786,31.186 5.503,43.241c4.717,12.055 11.531,21.227 20.441,27.517c8.91,6.289 19.48,10.832 31.71,13.627c12.23,2.796 24.809,3.669 37.737,2.621c12.929,-1.048 26.207,-3.32 39.834,-6.814c13.628,-5.591 30.4,-13.452 50.317,-23.586l26.206,-14.151l2.621,-1.573c4.892,-4.193 10.657,-9.434 17.296,-15.724l-1.048,1.049Zm-53.461,38.785l2.62,-1.048l3.145,-2.096l-5.765,3.144Zm-169.819,22.538c14.676,7.687 31.099,11.531 49.269,11.531c-24.809,-3.494 -46.298,-12.405 -64.468,-26.731c4.542,5.591 9.609,10.658 15.199,15.2Zm3.145,-232.714c-13.627,18.17 -24.547,39.048 -32.758,62.634c-8.211,23.586 -12.492,46.909 -12.841,69.971c14.676,-39.484 43.677,-81.415 87.006,-125.791l8.386,-8.386c13.976,-10.832 27.429,-20.441 40.358,-28.828c-36.689,2.446 -66.74,12.58 -90.151,30.4Zm227.997,-67.613l0,-2.62c-15.374,-1.748 -31.273,-0.525 -47.696,3.668c-22.712,5.591 -45.774,14.676 -69.185,27.255c1.398,0 6.988,-0.174 16.772,-0.524c9.784,-0.349 15.899,-0.611 18.345,-0.786c2.446,-0.175 7.774,-0.612 15.986,-1.31c8.211,-0.699 14.239,-1.573 18.082,-2.621l15.2,-5.241c6.639,-1.747 12.492,-4.106 17.558,-7.076c5.067,-2.97 10.046,-6.552 14.938,-10.745Zm0,1.573c-6.29,5.94 -13.278,11.094 -20.965,15.461c-7.687,4.368 -14.501,7.688 -20.441,9.959c-5.94,2.271 -13.54,4.106 -22.8,5.503c-9.26,1.398 -16.335,2.272 -21.227,2.621c-4.892,0.349 -12.929,0.699 -24.11,1.048c-11.182,0.35 -18.694,0.524 -22.538,0.524c-17.121,10.134 -34.767,22.363 -52.937,36.69c-20.616,21.664 -39.397,45.424 -56.344,71.281c-16.947,25.857 -27.342,50.666 -31.186,74.427c0.699,6.289 1.747,12.579 3.145,18.868c8.735,18.17 21.664,33.021 38.786,44.552c-12.58,-14.676 -17.996,-35.117 -16.248,-61.324c3.494,-48.22 23.411,-91.723 59.75,-130.508l8.387,-8.386c12.579,-10.133 23.76,-18.17 33.544,-24.11c9.784,-5.94 20.79,-10.483 33.02,-13.628c11.531,-2.795 26.032,-4.455 43.503,-4.979c17.471,-0.524 33.632,-1.834 48.482,-3.931c14.85,-2.096 28.216,-6.988 40.096,-14.676c5.591,-12.579 0.175,-20.266 -16.248,-23.061l-3.669,3.669Z" style="fill:#fff;fill-rule:nonzero;stroke:#fff;stroke-width:1.46px;stroke-linecap:butt;stroke-miterlimit:1.41421;"/><path d="M554.877,1144.83c0,-8.386 -0.175,-18.868 -0.525,-31.448c-0.698,13.278 -0.524,23.761 0.525,31.448Zm41.93,-149.377c0,12.23 1.048,19.742 3.145,22.538c1.747,-4.543 3.494,-9.609 5.241,-15.2l3.145,-11.531c5.94,-20.616 10.133,-33.894 12.579,-39.834c-9.085,13.278 -17.122,27.954 -24.11,44.027Zm-26.207,9.959c4.194,-17.122 10.134,-37.039 17.821,-59.751l3.669,-9.435l1.572,-18.868c1.747,-22.014 3.058,-39.223 3.931,-51.627c0.874,-12.405 1.573,-27.43 2.097,-45.075c0.524,-17.646 -0.437,-30.749 -2.883,-39.31c-2.446,-8.561 -6.115,-12.841 -11.007,-12.841l-1.048,0c-7.338,16.422 -12.929,36.689 -16.772,60.799c-0.35,2.446 -0.524,4.892 -0.524,7.337l3.669,-3.668c-1.748,5.59 -3.145,11.53 -4.193,17.82c-0.35,15.724 0.262,37.475 1.834,65.254c1.572,27.779 2.359,46.211 2.359,55.296c0,10.483 -0.175,21.839 -0.525,34.069Zm-11.006,-92.772c-1.398,36.34 -0.874,87.705 1.572,154.095c1.048,-40.184 1.573,-69.185 1.573,-87.006c0,-6.639 -1.049,-29.002 -3.145,-67.089Zm169.294,220.659c-17.471,11.182 -24.634,-8.211 -21.489,-58.178l0,-5.766c0.349,-4.542 1.485,-13.802 3.406,-27.778c1.922,-13.977 3.233,-26.556 3.931,-37.738c0.699,-11.181 0.612,-23.062 -0.262,-35.641c-0.873,-12.579 -4.367,-22.625 -10.482,-30.137c-6.115,-7.513 -14.763,-11.444 -25.945,-11.793c-16.772,-1.048 -33.195,4.717 -49.268,17.296c-2.097,5.591 -4.368,12.405 -6.814,20.441c3.494,-4.892 7.338,-9.609 11.531,-14.151l8.386,-8.386c17.821,-12.23 31.972,-14.676 42.455,-7.338c15.025,10.482 22.537,41.406 22.537,92.771c0,6.988 -0.174,18.344 -0.524,34.068c-1.048,47.172 1.049,77.048 6.29,89.627c5.94,14.326 16.597,17.995 31.972,11.006c21.314,-26.556 33.369,-60.1 36.165,-100.633c2.446,-40.532 -5.416,-74.776 -23.586,-102.729c-3.145,-4.892 -6.814,-9.784 -11.007,-14.676c8.736,19.218 14.763,39.834 18.083,61.848c3.319,22.013 2.795,43.939 -1.573,65.778c-4.367,21.839 -12.841,39.746 -25.42,53.723l-8.386,8.386Zm5.241,-6.813c13.278,-17.821 20.965,-40.096 23.062,-66.827c2.096,-26.731 -0.437,-52.588 -7.6,-77.571c-7.163,-24.984 -17.384,-46.036 -30.662,-63.158c-29.001,-19.218 -54.16,-20.791 -75.474,-4.717c-5.242,8.036 -9.959,17.296 -14.152,27.779c19.218,-17.122 38.262,-25.159 57.13,-24.11c11.182,0.699 19.83,4.804 25.945,12.317c6.115,7.512 9.609,17.558 10.482,30.137c0.874,12.579 0.961,24.46 0.262,35.641c-0.698,11.182 -2.096,23.761 -4.193,37.738c-2.096,13.976 -3.144,23.061 -3.144,27.254c-1.398,29.701 -0.699,48.744 2.096,57.131c3.494,9.434 8.91,12.229 16.248,8.386Zm-118.453,-171.391l5.765,-5.765c4.543,-11.182 9.784,-20.966 15.724,-29.352l8.386,-8.386c13.628,-13.627 30.05,-18.519 49.268,-14.675c-19.917,-11.881 -39.309,-10.483 -58.178,4.193c-16.423,23.411 -29.351,51.015 -38.786,82.812c5.591,-10.482 11.531,-20.092 17.821,-28.827Zm-52.413,187.639l-7.338,7.338c3.145,18.169 11.531,27.08 25.158,26.73c8.386,-11.88 13.802,-27.167 16.248,-45.861c2.446,-18.694 3.058,-36.602 1.835,-53.724c-1.223,-17.121 -0.437,-35.815 2.358,-56.082l-5.241,5.242c-1.747,1.747 -3.145,1.922 -4.193,0.524c-1.048,-1.398 -1.922,-4.193 -2.621,-8.386c-2.446,11.531 -5.853,30.225 -10.22,56.082c-4.368,25.857 -8.124,45.774 -11.269,59.751l-4.717,4.717l0,3.669Zm6.289,-82.289c4.193,-16.073 8.91,-31.098 14.152,-45.075c1.747,-6.639 3.319,-12.929 4.717,-18.869c0.349,-4.542 0.611,-9.696 0.786,-15.462c0.175,-5.765 0.262,-8.822 0.262,-9.172c0,-4.193 0.35,-9.259 1.048,-15.2c-12.579,38.786 -19.567,73.379 -20.965,103.778Zm28.303,-315.526c8.037,-3.495 14.414,-2.01 19.131,4.455c4.717,6.464 7.687,15.986 8.91,28.565c1.223,12.579 1.835,23.324 1.835,32.234c0,8.91 -0.35,17.034 -1.049,24.372c-0.698,6.29 -1.572,12.492 -2.62,18.607c-1.048,6.114 -2.796,13.016 -5.242,20.703l-5.241,16.772c-1.048,3.145 -3.407,9.784 -7.076,19.917c-3.669,10.133 -5.852,15.899 -6.551,17.296c-1.398,16.772 -2.097,28.653 -2.097,35.641c0,0.699 -0.174,2.446 -0.524,5.241c8.736,-23.061 19.742,-43.852 33.02,-62.371l8.386,-8.386c10.134,-9.435 20.616,-14.938 31.448,-16.51c10.832,-1.573 20.878,0.262 30.138,5.503c9.259,5.241 18.082,13.278 26.468,24.11c15.724,10.133 28.653,23.062 38.786,38.786c18.869,29.351 26.469,65.429 22.8,108.233c-3.669,42.804 -17.559,76.959 -41.669,102.467l-8.386,8.386c-20.965,10.483 -33.544,1.747 -37.737,-26.206c-2.097,-11.531 -2.796,-41.581 -2.097,-90.151c0.699,-52.762 -4.018,-86.656 -14.151,-101.681c-2.446,-3.494 -5.242,-6.29 -8.386,-8.386c-10.133,-6.989 -23.411,-5.067 -39.834,5.765c-8.386,10.133 -14.851,21.839 -19.393,35.117c-1.398,4.193 -2.446,8.037 -3.145,11.531c-3.494,13.278 -5.503,29.439 -6.027,48.482c-0.524,19.043 -0.612,35.728 -0.262,50.054c0.349,14.327 -1.311,29.264 -4.98,44.814c-3.669,15.549 -10.22,28.39 -19.655,38.523l-8.386,8.386c-4.892,0.35 -9.172,-0.436 -12.841,-2.358c-3.669,-1.922 -6.464,-4.805 -8.386,-8.648c-1.922,-3.844 -3.494,-7.775 -4.717,-11.793c-1.223,-4.019 -1.922,-8.911 -2.097,-14.676c-0.174,-5.765 -0.262,-10.745 -0.262,-14.938c0,-4.193 0.088,-8.997 0.262,-14.413c0.175,-5.416 0.262,-9.173 0.262,-11.269l0,-28.827l0,-35.641c0,-7.338 0.088,-19.131 0.263,-35.379c0.174,-16.248 0.524,-29.526 1.048,-39.834c0.524,-10.308 1.223,-22.188 2.096,-35.641c0.874,-13.453 2.009,-25.595 3.407,-36.427c1.398,-21.315 3.494,-40.533 6.29,-57.654c2.096,-26.556 7.512,-47.696 16.248,-63.42l3.145,-3.145c3.144,-6.639 6.639,-12.579 10.482,-17.82l8.386,-8.386Zm-4.717,6.813c-2.446,3.844 -4.717,8.037 -6.814,12.579c3.495,-2.795 6.115,-4.193 7.862,-4.193c4.892,0 8.474,4.281 10.745,12.842c2.271,8.56 3.232,21.751 2.883,39.571c-0.35,17.821 -0.961,32.933 -1.835,45.338c-0.873,12.404 -2.358,29.613 -4.455,51.627c9.784,-26.906 15.375,-49.094 16.772,-66.565c0.699,-7.338 1.049,-15.2 1.049,-23.586c0,-8.386 -0.437,-18.694 -1.311,-30.924c-0.873,-12.229 -3.494,-21.838 -7.862,-28.827c-4.367,-6.988 -10.046,-9.609 -17.034,-7.862Z" style="fill:#fff;fill-rule:nonzero;stroke:#fff;stroke-width:1.46px;stroke-linecap:butt;stroke-miterlimit:1.41421;"/><path d="M877.217,1025.32c-2.446,34.593 -3.669,63.595 -3.669,87.006l0,9.959c0,2.446 0.175,6.813 0.524,13.103c0.349,6.289 0.961,11.356 1.834,15.2c0.874,3.843 2.01,7.949 3.407,12.317c1.398,4.367 3.407,7.512 6.028,9.434c2.621,1.922 5.678,2.533 9.172,1.835c-2.446,-2.796 -5.066,-16.248 -7.862,-40.358c-2.096,-7.338 -3.145,-18.17 -3.145,-32.497c-2.446,-23.411 -4.542,-48.744 -6.289,-75.999Zm26.73,118.454l-2.62,2.621c-1.048,0.698 -2.271,1.048 -3.669,1.048c1.398,7.338 2.621,12.579 3.669,15.724c1.398,-5.591 2.271,-12.055 2.62,-19.393Zm15.724,-184.494c-6.289,17.122 -9.783,38.174 -10.482,63.158c-0.699,24.983 -0.175,46.909 1.572,65.778c0.35,-2.446 0.524,-4.717 0.524,-6.814c-3.494,-34.592 -1.921,-64.642 4.717,-90.15c0.699,-11.88 1.922,-22.538 3.669,-31.972Zm3.145,-15.724c0.699,-1.398 1.223,-2.97 1.573,-4.717c-4.892,8.037 -9.959,17.471 -15.2,28.303l-8.386,8.386c0,-1.398 0.873,-9.784 2.62,-25.158c1.747,-15.375 2.359,-29.264 1.835,-41.669c-0.524,-12.404 -3.058,-21.052 -7.6,-25.944c-4.543,15.025 -8.561,35.641 -12.055,61.847c-0.35,19.218 0.524,46.124 2.621,80.716c2.096,34.593 3.144,52.938 3.144,55.034l0,13.103c1.049,12.23 2.272,23.062 3.669,32.497c1.747,7.687 4.543,12.055 8.386,13.103l0.524,-1.573c0,-3.494 -0.174,-8.298 -0.524,-14.413c-0.349,-6.115 -0.524,-10.57 -0.524,-13.366c0,-5.59 -0.349,-16.422 -1.048,-32.496c-0.699,-16.073 -0.961,-28.303 -0.786,-36.689c0.174,-8.386 0.786,-19.13 1.834,-32.234c1.048,-13.103 3.232,-24.809 6.552,-35.117c3.319,-10.307 7.774,-20.179 13.365,-29.613Zm23.586,-42.979c-3.494,4.543 -6.464,9.784 -8.91,15.724l2.62,-3.144l8.387,-8.387c3.843,-3.494 7.687,-6.464 11.53,-8.91c-4.891,0.699 -9.434,2.271 -13.627,4.717Zm-34.068,228.521c0,15.724 -2.621,28.653 -7.862,38.786c2.446,1.048 6.988,0.175 13.627,-2.621c2.795,-3.144 4.542,-6.289 5.241,-9.434c1.398,-2.446 1.747,-6.377 1.049,-11.793c-0.699,-5.416 -1.311,-9.172 -1.835,-11.269c-0.524,-2.096 -1.66,-5.853 -3.407,-11.269c-1.747,-5.416 -2.795,-9.172 -3.145,-11.268c-1.048,6.988 -2.271,13.278 -3.668,18.868Zm26.206,-203.886c-2.795,3.494 -5.241,6.988 -7.338,10.482c-2.096,8.037 -3.843,17.296 -5.241,27.779c3.494,-6.988 7.687,-13.103 12.579,-18.344l8.386,-8.387c3.844,-0.349 7.95,2.272 12.317,7.862c4.368,5.591 8.299,11.531 11.793,17.821c3.494,6.289 8.037,11.269 13.628,14.938c5.59,3.668 11.53,3.406 17.82,-0.787c6.639,-9.783 10.308,-20.441 11.007,-31.972c-1.398,3.145 -2.97,6.115 -4.717,8.911l-8.387,8.386c-5.59,4.193 -10.395,5.241 -14.413,3.144c-4.018,-2.096 -7.163,-5.852 -9.434,-11.268c-2.272,-5.416 -5.067,-10.92 -8.387,-16.51c-3.319,-5.591 -7.075,-9.784 -11.268,-12.58c-4.193,-2.795 -10.308,-2.62 -18.345,0.525Zm6.29,-7.338c8.735,-4.193 15.986,-4.281 21.751,-0.262c5.766,4.018 9.959,9.521 12.579,16.51c2.621,6.988 5.94,13.103 9.959,18.344c4.018,5.242 8.823,6.639 14.413,4.193c6.639,-14.326 6.727,-27.604 0.262,-39.834c-6.464,-12.229 -16.51,-19.392 -30.137,-21.489c-9.085,0.699 -18.519,5.067 -28.303,13.103c-3.494,4.193 -6.814,8.561 -9.959,13.104c-1.048,2.795 -1.921,5.765 -2.62,8.91c1.048,-1.398 2.271,-2.796 3.669,-4.193l8.386,-8.386Zm-49.793,260.493c-15.724,11.181 -25.333,1.572 -28.827,-28.828c-0.699,-6.988 -1.048,-16.597 -1.048,-28.827c0,-43.328 3.145,-91.548 9.434,-144.66c-1.747,-35.641 -1.922,-55.732 -0.524,-60.275l6.814,-6.813c1.747,-12.58 4.542,-22.363 8.386,-29.352l8.386,-8.386c1.048,0 1.922,0.175 2.621,0.524l2.096,-2.096l-1.048,2.096c2.446,1.048 4.542,2.883 6.289,5.504c1.748,2.62 3.058,6.202 3.931,10.744c0.874,4.543 1.485,8.736 1.835,12.579c0.349,3.844 0.349,9.173 0,15.986c-0.35,6.814 -0.699,11.793 -1.048,14.938c-0.35,3.145 -0.874,8.299 -1.573,15.462c-0.699,7.163 -1.048,11.094 -1.048,11.793c5.94,-10.832 11.88,-20.441 17.82,-28.827c4.193,-11.531 9.435,-20.791 15.724,-27.779l8.386,-8.386c9.784,-5.94 19.917,-8.037 30.4,-6.29c11.531,-1.048 21.053,2.796 28.565,11.531c7.513,8.736 11.182,20.092 11.007,34.069c-0.175,13.976 -4.63,27.08 -13.366,39.309l-8.386,8.386c-6.988,6.989 -13.627,9.173 -19.917,6.552c-6.289,-2.621 -11.181,-6.988 -14.675,-13.103c-3.494,-6.115 -7.6,-12.492 -12.317,-19.131c-4.717,-6.639 -8.823,-9.958 -12.317,-9.958c-7.338,10.133 -12.929,22.712 -16.773,37.737c-1.048,11.181 -1.921,27.167 -2.62,47.958c-0.699,20.79 -1.223,34.855 -1.573,42.192c0.699,7.338 1.573,14.327 2.621,20.966c0.699,3.843 2.271,9.696 4.717,17.558c2.446,7.862 4.106,13.889 4.979,18.082c0.874,4.194 0.787,10.134 -0.262,17.821c-0.698,1.747 -1.572,3.581 -2.62,5.503c-1.049,1.922 -1.835,3.232 -2.359,3.931c-0.524,0.699 -1.834,2.097 -3.931,4.193l-3.669,3.669l-8.386,8.386c-6.988,2.796 -11.531,3.844 -13.627,3.145l-2.097,2.097Z" style="fill:#fff;fill-rule:nonzero;stroke:#fff;stroke-width:1.46px;stroke-linecap:butt;stroke-miterlimit:1.41421;"/><path d="M1262.98,1136.44c20.616,-30.399 31.098,-62.721 31.448,-96.964c-3.844,20.266 -11.531,38.087 -23.062,53.461l-8.386,8.386c-34.593,32.147 -68.661,42.106 -102.206,29.876c-24.808,-9.085 -42.978,-28.128 -54.509,-57.13c-14.676,-35.991 -13.453,-73.553 3.669,-112.688c8.036,-18.52 19.393,-35.641 34.068,-51.365l8.386,-8.386c10.483,-8.736 20.616,-14.851 30.4,-18.345c-19.218,5.94 -39.31,17.646 -60.275,35.117c-34.593,45.424 -45.949,92.422 -34.069,140.991c8.387,34.942 26.906,62.022 55.558,81.24c30.05,20.616 60.45,24.809 91.199,12.579c9.784,-4.193 19.043,-9.783 27.779,-16.772Zm-1.572,2.097c-28.304,27.254 -60.101,35.641 -95.392,25.158c-29.701,-8.736 -53.112,-28.128 -70.234,-58.179c-22.013,-37.737 -26.032,-78.27 -12.055,-121.598c6.989,-20.965 17.995,-41.057 33.02,-60.275l8.387,-8.386c18.868,-16.772 37.3,-28.914 55.295,-36.427c17.995,-7.513 34.069,-10.046 48.22,-7.6c14.152,2.446 26.556,8.736 37.214,18.869c10.657,10.133 18.868,24.372 24.634,42.716c5.765,18.345 8.473,39.398 8.124,63.158c5.59,21.664 5.678,44.464 0.262,68.399c-5.416,23.935 -15.113,45.862 -29.089,65.779l-8.386,8.386Zm2.096,-196.025c-10.483,-16.073 -23.586,-26.381 -39.31,-30.924c-15.724,-4.542 -33.894,-1.747 -54.509,8.386c11.531,-2.096 26.206,-1.572 44.027,1.573c19.567,3.494 36.165,10.482 49.792,20.965Zm23.062,25.682l2.096,3.145c-4.193,-33.544 -15.112,-58.528 -32.758,-74.951c-17.646,-16.422 -39.572,-21.489 -65.778,-15.199l-7.338,7.337c-12.23,3.495 -24.11,9.784 -35.641,18.869c-13.627,15.724 -24.11,32.671 -31.448,50.841c4.193,-5.94 8.736,-11.531 13.628,-16.772l8.386,-8.386c8.386,-5.591 16.947,-9.435 25.682,-11.531c19.917,-15.025 38.174,-21.926 54.772,-20.704c16.597,1.223 30.836,7.862 42.716,19.917c11.881,12.055 20.441,27.867 25.683,47.434Zm-39.834,143.612c6.289,-3.844 12.404,-8.211 18.344,-13.103c11.881,-16.772 19.568,-36.689 23.062,-59.751c-5.591,24.459 -16.597,45.949 -33.02,64.468l-8.386,8.386Zm-92.247,-181.873l0.524,-0.524c-8.037,2.096 -15.899,5.59 -23.586,10.482c-11.531,13.977 -19.218,29.614 -23.062,46.91c-3.843,17.296 -4.105,33.719 -0.786,49.268c3.32,15.549 9.609,29.963 18.869,43.241c9.26,13.278 20.179,23.673 32.758,31.186c12.579,7.512 27.167,11.094 43.765,10.744c16.597,-0.349 32.933,-5.59 49.006,-15.724c15.025,-18.868 24.722,-40.358 29.089,-64.468c4.368,-24.11 3.582,-45.774 -2.358,-64.992c-15.375,-24.809 -39.834,-40.183 -73.378,-46.123c-19.917,-3.844 -36.34,-4.193 -49.269,-1.049c-18.868,23.062 -30.399,45.163 -34.592,66.303c-4.193,21.14 -0.175,40.97 12.055,59.489c12.229,18.519 32.67,34.068 61.323,46.647l-8.386,8.386c-29.351,-13.277 -50.055,-29.526 -62.11,-48.744c-12.055,-19.218 -15.374,-39.921 -9.958,-62.109c5.416,-22.188 18.781,-45.163 40.096,-68.923Z" style="fill:#fff;fill-rule:nonzero;stroke:#fff;stroke-width:1.46px;stroke-linecap:butt;stroke-miterlimit:1.41421;"/><path d="M1386.15,902.678c-2.796,38.786 -1.922,75.125 2.62,109.019l0,-35.117c0,-16.073 -0.873,-40.707 -2.62,-73.902Zm26.206,-107.971c1.398,15.375 2.009,29.351 1.835,41.93c-0.175,12.58 -0.612,30.487 -1.311,53.724c-0.699,23.236 -0.873,40.969 -0.524,53.199c2.446,-16.073 4.543,-33.37 6.29,-51.889c1.747,-18.519 2.358,-38.087 1.834,-58.702c-0.524,-20.616 -3.232,-33.37 -8.124,-38.262Zm-9.958,-1.572c-1.398,-4.892 -3.145,-7.513 -5.242,-7.862c-1.397,-0.35 -2.97,-0.175 -4.717,0.524c-0.699,11.531 -1.048,23.935 -1.048,37.213c2.446,-9.434 5.066,-18.344 7.862,-26.731l3.145,-3.144Zm25.682,225.9c-2.446,13.627 -2.621,27.866 -0.524,42.717c2.096,14.85 6.377,27.691 12.841,38.523c6.464,10.832 14.676,18.519 24.634,23.062c9.959,4.542 21.402,3.669 34.331,-2.621c24.11,-33.544 34.243,-64.118 30.399,-91.723c-5.59,-5.241 -15.112,-7.949 -28.565,-8.124c-13.452,-0.174 -26.119,0.525 -37.999,2.097c-11.881,1.572 -23.586,0.262 -35.117,-3.931Zm2.621,-11.007c6.988,4.543 16.947,6.901 29.875,7.076c12.929,0.175 24.547,-0.437 34.855,-1.835c10.308,-1.397 20.528,-0.873 30.661,1.573c-6.289,-18.17 -18.432,-30.05 -36.427,-35.641c-17.995,-5.591 -34.505,-2.97 -49.53,7.862c-3.844,5.94 -6.988,12.929 -9.434,20.965Zm81.764,104.302c16.423,-20.616 24.809,-39.834 25.158,-57.654l0,-8.386c-3.843,22.712 -15.374,46.822 -34.592,72.33c3.144,-1.747 6.289,-3.844 9.434,-6.29Zm-90.15,-95.916c-6.639,-4.542 -11.357,-11.356 -14.152,-20.441c-3.494,-12.928 -4.63,-44.988 -3.407,-96.178c1.223,-51.19 0.961,-84.647 -0.786,-100.371c-4.892,15.724 -8.91,32.846 -12.055,51.365c0.349,7.687 1.223,25.42 2.621,53.199c1.397,27.779 2.271,49.181 2.62,64.206c0,2.796 -0.087,16.51 -0.262,41.145c-0.174,24.634 -0.087,39.921 0.262,45.861l1.049,2.621c2.795,10.482 6.027,20.266 9.696,29.351c3.669,9.085 8.386,18.17 14.152,27.255c5.765,9.085 11.967,16.073 18.606,20.965c6.639,4.892 14.501,7.076 23.586,6.552c9.085,-0.525 18.519,-4.63 28.303,-12.318l2.097,-2.62c-10.832,6.289 -21.228,8.473 -31.186,6.551c-9.959,-1.921 -17.995,-6.901 -24.11,-14.937c-6.115,-8.037 -11.269,-17.821 -15.462,-29.352c-4.193,-11.53 -6.202,-23.76 -6.028,-36.689c0.175,-12.928 1.66,-24.983 4.456,-36.165Zm4.193,-11.531c2.446,-5.241 5.241,-9.783 8.386,-13.627l8.386,-8.386c10.133,-8.736 21.664,-13.54 34.592,-14.414c12.929,-0.873 24.722,2.446 35.379,9.959c10.658,7.512 18.083,17.908 22.276,31.186c1.048,3.843 1.747,7.512 2.096,11.006c5.94,5.591 8.736,14.152 8.386,25.683c-0.349,11.531 -2.97,22.013 -7.862,31.448c-4.891,9.434 -11.88,19.742 -20.965,30.923l-8.386,8.386c-3.494,3.145 -6.988,5.766 -10.483,7.862l-0.524,0.524l-8.386,8.387c-10.133,9.084 -19.829,14.5 -29.089,16.248c-9.26,1.747 -17.471,0.087 -24.634,-4.98c-7.163,-5.066 -13.453,-11.356 -18.869,-18.868c-5.416,-7.513 -10.57,-16.685 -15.462,-27.517c2.097,11.531 4.805,21.314 8.124,29.351c3.32,8.037 7.95,14.501 13.89,19.393c5.94,4.892 13.016,7.338 21.227,7.338c8.212,0 18.257,-3.058 30.138,-9.173c11.88,-6.114 25.158,-15.636 39.834,-28.565c17.82,-18.868 29.875,-35.641 36.165,-50.316c5.59,-12.929 8.648,-26.381 9.172,-40.358c0.524,-13.977 -1.398,-26.906 -5.766,-38.786c-4.367,-11.88 -11.967,-21.577 -22.799,-29.089c-10.832,-7.513 -24.11,-11.269 -39.834,-11.269c-10.832,0 -24.547,4.455 -41.144,13.365c-16.598,8.911 -27.692,14.239 -33.283,15.986c-0.349,0 -1.223,0.35 -2.62,1.049c0.349,3.843 1.048,7.163 2.096,9.958c2.097,7.338 5.416,13.103 9.959,17.296Zm-31.448,-225.376c0.699,0 1.747,-0.349 3.145,-1.048c1.397,-0.699 2.708,-1.223 3.931,-1.572c1.223,-0.35 2.358,-0.35 3.406,0c2.097,0.698 3.844,3.669 5.242,8.91c11.181,-5.94 17.296,7.512 18.344,40.358c0.699,35.291 -2.62,73.902 -9.958,115.833c-0.35,1.747 -0.524,3.145 -0.524,4.193c-2.796,13.627 -3.145,21.489 -1.049,23.586c1.049,0.349 1.835,0.524 2.359,0.524c0.524,0 1.485,-0.262 2.883,-0.786c1.397,-0.525 2.271,-0.961 2.62,-1.311c5.591,-1.747 16.598,-7.076 33.021,-15.986c16.422,-8.91 30.224,-13.365 41.406,-13.365c15.374,0 28.565,3.844 39.572,11.531c11.006,7.687 18.694,17.383 23.061,29.089c4.368,11.706 6.29,24.547 5.766,38.524c-0.524,13.976 -3.582,27.429 -9.172,40.358c-6.639,15.374 -20.441,34.068 -41.407,56.082l-8.386,8.386c-13.627,11.88 -26.032,21.14 -37.213,27.779c-11.181,6.639 -20.791,10.57 -28.827,11.793c-8.037,1.223 -15.113,0.349 -21.227,-2.621c-6.115,-2.97 -11.095,-7.425 -14.938,-13.365c-3.844,-5.941 -7.076,-13.54 -9.697,-22.8c-2.62,-9.26 -4.542,-18.694 -5.765,-28.303c-1.223,-9.609 -2.009,-20.354 -2.359,-32.234c-7.687,-27.604 -11.967,-60.188 -12.841,-97.75c-0.873,-37.563 1.66,-72.942 7.6,-106.137c-1.048,-21.664 -1.223,-40.882 -0.524,-57.654c-5.94,15.025 -10.133,32.496 -12.579,52.413c-2.446,19.917 -3.494,37.475 -3.145,52.675c0.349,15.2 1.136,34.505 2.359,57.916c1.223,23.411 2.009,40.358 2.358,50.841c0,4.892 -0.087,13.977 -0.262,27.255c-0.175,13.278 -0.175,23.498 0,30.661c0.175,7.164 0.961,15.986 2.359,26.469c1.397,10.483 3.494,19.917 6.289,28.303c3.145,9.434 7.251,17.034 12.317,22.8c5.067,5.765 11.968,11.443 20.703,17.034l-8.386,8.386c-8.735,-5.591 -15.636,-11.356 -20.703,-17.296c-5.066,-5.94 -9.172,-13.453 -12.317,-22.538c-2.795,-8.386 -4.892,-17.908 -6.289,-28.565c-1.398,-10.657 -2.184,-19.48 -2.359,-26.469c-0.175,-6.988 -0.175,-17.121 0,-30.399c0.175,-13.278 0.262,-22.363 0.262,-27.255c0,-10.483 -0.786,-29.089 -2.359,-55.82c-1.572,-26.73 -2.358,-48.045 -2.358,-63.944c0,-15.898 1.922,-34.68 5.765,-56.344c3.844,-21.664 10.134,-40.183 18.869,-55.558l0.524,-0.524l2.097,-3.669l8.386,-8.386Z" style="fill:#fff;fill-rule:nonzero;stroke:#fff;stroke-width:1.46px;stroke-linecap:butt;stroke-miterlimit:1.41421;"/><path d="M1738.89,954.043c-8.386,-1.398 -18.257,-2.534 -29.613,-3.407c-11.356,-0.874 -20.179,-1.747 -26.469,-2.621c-6.289,-0.873 -10.307,-2.358 -12.055,-4.455c-0.349,-0.699 0.525,-2.97 2.621,-6.814l-5.241,4.193l6.813,-6.813l3.669,-3.145l3.669,-3.669c5.94,-5.94 12.579,-10.657 19.917,-14.151c59.751,-39.485 108.321,-27.954 145.709,34.592c14.326,17.471 25.507,37.213 33.544,59.227c8.037,22.013 11.181,43.503 9.434,64.468c0.35,6.988 0.175,13.802 -0.524,20.441c-2.096,16.772 -10.482,33.544 -25.158,50.317l-8.386,8.386c-10.133,4.542 -17.821,6.901 -23.062,7.075c-5.241,0.175 -9.522,-1.572 -12.841,-5.241c-3.32,-3.669 -5.591,-7.6 -6.814,-11.793c-1.223,-4.193 -2.795,-8.386 -4.717,-12.579c-1.922,-4.193 -4.28,-6.814 -7.076,-7.862c-17.471,11.182 -34.767,18.519 -51.889,22.014c-2.096,0.349 -4.367,0.698 -6.813,1.048c-3.495,1.747 -7.164,3.145 -11.007,4.193c-11.531,4.892 -21.577,8.561 -30.138,11.007c-8.56,2.446 -17.121,3.581 -25.682,3.406c-8.561,-0.174 -15.112,-3.232 -19.655,-9.172c-4.542,-5.94 -6.814,-14.675 -6.814,-26.206c0,-12.929 2.883,-24.722 8.649,-35.379c5.765,-10.657 13.889,-21.926 24.372,-33.807l8.386,-8.386c30.05,-27.953 60.275,-41.93 90.674,-41.93l-6.813,6.814l4.193,-1.049c2.096,-0.349 7.25,-1.135 15.461,-2.358c8.212,-1.223 14.414,-2.359 18.607,-3.407c-1.048,-4.543 -2.795,-8.736 -5.241,-12.579c-9.784,-15.724 -25.158,-27.255 -46.124,-34.593c-12.579,0 -27.779,1.573 -45.599,4.717l-45.075,7.862c-11.881,2.097 -19.044,2.272 -21.49,0.524c-1.048,-0.698 -1.659,-1.572 -1.834,-2.62c-0.175,-1.048 -0.087,-2.271 0.262,-3.669c0.349,-1.398 0.874,-2.796 1.572,-4.193c0.699,-1.398 1.573,-2.796 2.621,-4.193l3.145,-4.193c1.048,-1.398 2.184,-2.796 3.407,-4.193c1.223,-1.398 2.184,-2.621 2.882,-3.669l3.145,-2.097l1.048,-1.572l1.573,-1.573c-11.182,12.23 -14.326,20.092 -9.435,23.586c2.446,1.049 4.892,1.573 7.338,1.573c2.446,0 6.814,-0.524 13.104,-1.573c6.289,-1.048 12.229,-2.096 17.82,-3.144l19.917,-3.669c8.037,-1.747 15.374,-2.97 22.013,-3.669Zm83.337,49.268l0.524,0c-1.747,-15.724 -8.56,-27.255 -20.441,-34.593c5.591,5.242 10.483,11.007 14.676,17.297c3.494,5.59 5.241,11.356 5.241,17.296Zm-57.654,129.46c10.832,-2.795 21.839,-7.163 33.02,-13.103l-0.524,0c-4.543,0.699 -15.2,4.892 -31.972,12.579l-0.524,0.524Zm-98.013,-2.096c-8.735,-9.085 -10.133,-20.616 -4.193,-34.593c3.145,-7.687 8.386,-16.073 15.724,-25.158l8.386,-8.386c27.605,-24.11 55.034,-39.834 82.289,-47.172c-26.906,1.398 -53.636,13.802 -80.192,37.213c-12.929,15.025 -21.664,29.526 -26.207,43.503c-2.446,7.338 -3.669,14.676 -3.669,22.014c0,28.652 14.676,40.008 44.027,34.068c-10.482,0 -18.956,-1.922 -25.42,-5.765c-6.464,-3.844 -10.046,-9.085 -10.745,-15.724Zm159.336,-30.4l0,-1.572c-0.349,-3.494 -0.699,-5.416 -1.048,-5.766c-0.35,-0.699 -1.223,-0.786 -2.621,-0.262c-1.398,0.524 -2.446,1.049 -3.145,1.573c-0.698,0.524 -1.572,1.31 -2.62,2.358c-1.049,1.048 -1.747,1.573 -2.097,1.573l-27.255,19.392c8.387,-3.494 14.501,-5.59 18.345,-6.289c1.747,0 3.494,0.175 5.241,0.524c4.892,-3.145 9.784,-6.639 14.676,-10.483l0.524,-1.048Zm-90.675,-194.976l4.718,-4.718c17.471,-1.048 31.448,-0.524 41.93,1.573c-19.218,-6.29 -40.183,-4.543 -62.896,5.241c4.892,-1.048 10.308,-1.747 16.248,-2.096Zm133.654,219.086c8.036,-13.278 12.579,-28.303 13.627,-45.075c-1.048,-22.363 -9.609,-52.238 -25.682,-89.626c-5.242,-12.58 -10.832,-23.936 -16.772,-34.069c-3.145,-3.844 -6.465,-7.338 -9.959,-10.482c12.929,21.314 20.004,46.385 21.227,75.212c1.223,28.827 -4.455,52.85 -17.034,72.068c0,0.699 0.175,2.097 0.524,4.193c0.35,6.29 0.699,11.007 1.049,14.152c0.349,3.145 1.223,6.988 2.62,11.531c1.398,4.542 3.232,7.425 5.504,8.648c2.271,1.223 5.503,1.485 9.696,0.786c4.193,-0.699 9.26,-3.145 15.2,-7.338Zm-2.621,4.193c-5.94,4.543 -11.094,7.862 -15.462,9.959c-4.367,2.096 -7.862,2.708 -10.482,1.834c-2.621,-0.873 -4.805,-2.009 -6.552,-3.407c-1.747,-1.397 -3.145,-4.28 -4.193,-8.648c-1.048,-4.368 -1.747,-8.037 -2.097,-11.007c-0.349,-2.97 -0.698,-7.25 -1.048,-12.841l0,-3.145l-4.717,4.718l-8.91,6.813c2.096,1.747 4.018,4.717 5.765,8.91c1.747,4.194 3.232,8.212 4.455,12.056c1.223,3.843 3.407,7.425 6.552,10.744c3.145,3.32 7.163,4.892 12.055,4.717c4.892,-0.174 12.055,-2.184 21.489,-6.027c8.386,-10.832 14.152,-21.664 17.297,-32.496c-1.747,3.145 -3.669,6.289 -5.766,9.434l-8.386,8.386Zm-66.564,-26.73c-18.869,15.723 -44.377,27.604 -76.524,35.64c8.387,0 17.122,-0.698 26.207,-2.096l23.586,-11.007c5.241,-3.145 10.657,-6.639 16.248,-10.482l18.345,-13.104l15.199,-11.006l2.097,-1.049l2.62,-2.096c0.699,-0.699 1.66,-1.398 2.883,-2.097c1.223,-0.699 2.184,-0.699 2.883,0c0.349,0.35 0.699,0.874 1.048,1.573c9.784,-23.062 11.793,-50.404 6.028,-82.027c-5.766,-31.622 -17.209,-55.296 -34.331,-71.019c-12.928,-11.881 -34.243,-18.345 -63.944,-19.393c-19.567,-0.699 -35.466,1.921 -47.696,7.862c-4.892,3.144 -9.958,6.639 -15.199,10.482c-0.699,1.398 -0.699,2.446 0,3.145c1.747,2.446 7.337,4.106 16.772,4.979c9.434,0.874 21.489,2.097 36.165,3.669c14.675,1.573 27.604,4.281 38.785,8.124c38.437,0.35 58.528,15.899 60.275,46.648l-8.386,8.386l-0.524,0c-0.349,7.338 -2.795,14.676 -7.338,22.013c7.338,1.747 12.317,4.98 14.938,9.697c2.621,4.717 2.271,11.793 -1.048,21.227c-3.32,9.434 -10.221,20.616 -20.703,33.544l-8.386,8.387Zm3.668,-4.718c13.628,-18.519 20.354,-32.408 20.179,-41.668c-0.174,-9.26 -5.328,-15.287 -15.461,-18.083l-7.338,7.338c-11.531,7.688 -30.487,15.462 -56.868,23.324c-26.382,7.862 -45.687,15.986 -57.917,24.372c-8.735,11.182 -12.579,21.14 -11.531,29.876c6.989,6.988 17.996,11.705 33.021,14.151l2.62,-2.62c20.616,-4.194 38.174,-8.911 52.675,-14.152c14.501,-5.241 28.041,-12.754 40.62,-22.538Zm-116.357,-20.441c-4.542,4.892 -7.861,10.133 -9.958,15.724l-8.386,8.386c2.795,-6.639 8.91,-14.675 18.344,-24.11Zm0,0l8.387,-8.386c13.627,-12.23 32.496,-22.537 56.606,-30.924c24.11,-8.386 43.852,-11.356 59.226,-8.91c2.097,-5.59 3.145,-11.181 3.145,-16.772c-4.193,1.747 -8.473,3.145 -12.841,4.193c-4.368,1.048 -9.696,2.009 -15.986,2.883c-6.29,0.873 -11.007,1.66 -14.151,2.358c-29.352,5.591 -58.528,20.616 -87.53,45.076c-15.025,19.917 -19.917,35.99 -14.676,48.22c2.795,-6.29 7.513,-12.929 14.152,-19.917l8.386,-8.386c12.579,-9.085 31.972,-17.559 58.178,-25.421c26.207,-7.862 44.726,-15.112 55.558,-21.751l1.048,-1.573c-14.675,-3.494 -34.68,-1.048 -60.013,7.338c-25.333,8.386 -45.162,19.044 -59.489,31.972Z" style="fill:#fff;fill-rule:nonzero;stroke:#fff;stroke-width:1.46px;stroke-linecap:butt;stroke-miterlimit:1.41421;"/><path d="M2039.74,1021.66l-2.62,3.668c1.747,-0.349 2.795,-0.436 3.144,-0.262c0.35,0.175 0.699,1.136 1.049,2.883c0.699,2.097 1.223,3.844 1.572,5.241c2.446,9.085 6.29,18.869 11.531,29.352c-4.892,-20.616 -9.784,-34.243 -14.676,-40.882Zm-12.579,14.151c2.446,1.398 5.067,3.844 7.862,7.338l-0.524,-1.572l-1.048,-5.242c-0.35,-1.747 -0.699,-2.795 -1.048,-3.145c-0.35,-0.349 -1.398,-0.174 -3.145,0.525l-2.097,2.096Zm-28.303,12.579c-0.699,4.193 -1.223,8.736 -1.572,13.628l3.669,-3.669l2.096,-1.573c0.699,-1.747 1.573,-3.319 2.621,-4.717c-1.747,0.35 -3.32,0.175 -4.717,-0.524c-0.699,-0.349 -1.398,-1.398 -2.097,-3.145Zm-36.689,-203.887c-0.349,7.688 -0.524,17.122 -0.524,28.303c0.349,-17.121 1.572,-32.845 3.669,-47.171c-1.048,5.94 -2.097,12.229 -3.145,18.868Zm-0.524,169.819l2.096,-17.297c0,-10.482 -0.436,-26.818 -1.31,-49.006c-0.873,-22.188 -1.31,-39.047 -1.31,-50.578c-0.35,22.712 -1.223,39.659 -2.621,50.84c0.35,5.591 1.398,27.604 3.145,66.041Zm9.434,155.142c-3.494,-1.747 -6.289,-5.59 -8.386,-11.53c0.35,3.494 1.048,6.638 2.097,9.434c4.193,3.843 8.91,6.639 14.151,8.386c2.796,-8.386 4.368,-18.519 4.717,-30.4c-1.397,5.941 -2.795,11.182 -4.193,15.724l-8.386,8.386Zm-18.868,-175.583c-5.242,33.544 -8.037,59.925 -8.387,79.143c-1.048,34.942 2.097,60.625 9.435,77.048c-0.35,-6.29 0.175,-18.52 1.572,-36.69c0,-1.048 0.175,-2.271 0.524,-3.669c-0.349,-6.289 -0.524,-12.928 -0.524,-19.916l0,-18.869l0,-11.531c0,-9.784 -0.873,-31.623 -2.62,-65.516Zm37.213,95.916c-0.35,-7.688 -0.35,-14.152 0,-19.393c-1.398,1.048 -2.097,1.747 -2.097,2.096c-0.699,1.048 -0.349,7.513 1.049,19.393l1.048,-2.096Zm7.862,-22.538c1.397,-3.494 3.145,-6.814 5.241,-9.959l-3.669,3.669l-1.572,1.573l0,4.717Zm17.296,-24.11l-0.524,0.524c0.699,0 1.398,-0.175 2.096,-0.524l-1.572,0Zm119.502,94.343l-6.814,6.814l-2.096,1.048c4.542,1.049 9.085,1.747 13.627,2.097c-1.048,-2.795 -2.621,-6.115 -4.717,-9.959Zm-72.33,-85.957c6.289,25.158 9.784,39.31 10.482,42.455c13.278,19.567 27.43,35.291 42.455,47.171c5.94,0 12.404,-1.572 19.393,-4.717c-10.483,-19.567 -27.43,-42.105 -50.841,-67.613c-1.747,-2.096 -5.328,-5.154 -10.745,-9.172c-5.416,-4.018 -8.997,-6.726 -10.744,-8.124Zm6.814,-98.537l12.579,-13.627l2.62,-2.621l5.766,-5.765l-12.579,13.627l-8.386,8.386Zm-74.427,57.655c-10.483,15.374 -18.345,28.827 -23.586,40.358l-1.572,1.572c-0.35,3.844 -1.136,10.308 -2.359,19.393c-1.223,9.085 -2.009,16.073 -2.358,20.965l0,5.766l-0.525,0.524l-0.524,2.621c1.398,28.303 5.242,46.647 11.531,55.033c1.048,-4.193 3.669,-16.947 7.862,-38.261c-0.349,-4.892 -1.048,-10.832 -2.096,-17.821c-1.049,-6.988 -1.66,-11.356 -1.835,-13.103c-0.175,-1.747 -0.087,-4.018 0.262,-6.814c0.699,-1.048 4.193,-4.717 10.483,-11.006c0.699,-12.58 3.145,-23.412 7.338,-32.497c-0.699,-6.289 -1.049,-15.025 -1.049,-26.206c-0.698,0 -1.223,-0.175 -1.572,-0.524Zm-17.296,-247.914c-4.892,10.832 -8.561,24.634 -11.007,41.406c4.542,-12.229 9.958,-22.712 16.248,-31.447l7.862,-7.862c-3.844,-3.844 -8.211,-4.543 -13.103,-2.097Zm34.068,256.3c-2.446,3.145 -4.542,6.639 -6.289,10.483c1.048,8.036 2.62,12.579 4.717,13.627c0.699,0.349 1.572,0.699 2.62,1.048l0.525,-1.048l8.386,-8.386c2.096,-0.35 4.018,0 5.765,1.048l1.572,-2.096l-3.144,1.048l8.386,-8.386l1.048,0l4.193,-5.766c-6.988,-8.735 -16.248,-9.259 -27.779,-1.572Zm66.565,-109.543c34.592,-30.4 54.16,-42.63 58.702,-36.69c0.699,1.398 1.311,2.883 1.835,4.456c0.524,1.572 1.048,3.406 1.572,5.503c0.524,2.097 0.961,3.669 1.311,4.717l-3.145,3.145c8.735,-1.398 12.928,1.398 12.579,8.386l3.669,0c20.266,2.097 6.464,29.526 -41.407,82.289l-4.193,4.193c2.446,-3.145 4.805,-5.941 7.076,-8.387c2.271,-2.445 5.329,-5.765 9.172,-9.958l9.435,-12.579l9.434,-12.579c3.145,-4.193 5.591,-8.124 7.338,-11.793c1.747,-3.669 3.057,-7.163 3.931,-10.483c0.874,-3.319 0.786,-6.027 -0.262,-8.124c-1.048,-2.096 -3.145,-3.319 -6.29,-3.669c-4.193,11.881 -13.627,27.342 -28.303,46.386c-14.675,19.043 -25.682,32.583 -33.02,40.62l-5.765,5.765l20.965,-26.206c7.687,-9.435 16.161,-21.315 25.42,-35.641c9.26,-14.326 14.239,-24.809 14.938,-31.448c-8.736,0.35 -20.092,6.989 -34.069,19.917l2.097,-2.096c0.699,-0.699 2.795,-2.621 6.29,-5.766c3.494,-3.145 6.114,-5.591 7.861,-7.338c1.748,-1.747 4.194,-3.669 7.338,-5.765c3.145,-2.097 6.115,-3.669 8.911,-4.717c-2.097,-3.145 -6.465,-4.019 -13.104,-2.621c-5.59,1.048 -12.229,5.067 -19.917,12.055c9.435,-10.133 17.297,-16.423 23.586,-18.869c-1.048,-5.59 -2.271,-9.259 -3.669,-11.006c-4.193,-6.29 -22.887,5.066 -56.082,34.068l5.766,-5.765Zm-96.964,-83.861l8.386,-8.386c-3.145,12.579 -5.329,31.535 -6.552,56.868c-1.223,25.333 -2.009,39.921 -2.359,43.765c-0.349,2.446 -3.144,26.206 -8.386,71.281c0.35,15.375 0.175,29.177 -0.524,41.407c-0.349,4.193 -0.699,8.735 -1.048,13.627c5.94,-10.482 13.453,-22.188 22.538,-35.117c-2.097,-11.181 -2.359,-26.905 -0.787,-47.171c1.573,-20.267 3.931,-44.901 7.076,-73.903c3.145,-29.002 4.717,-45.599 4.717,-49.792c0.699,-32.846 -2.97,-55.907 -11.006,-69.185c-2.097,0 -4.193,0.524 -6.29,1.572c-5.94,9.085 -11.007,19.917 -15.2,32.496l6.29,-6.289c-4.543,20.615 -7.163,43.939 -7.862,69.971c-0.699,26.032 -0.35,49.705 1.048,71.02l1.048,-11.531c0.35,-3.844 1.223,-18.432 2.621,-43.765c1.398,-25.333 3.494,-44.289 6.29,-56.868Zm100.633,175.059l-2.621,2.621l-10.483,9.958l8.386,-8.386c-0.349,0.35 -2.358,2.097 -6.027,5.242c-3.669,3.144 -6.202,5.765 -7.6,7.862c2.795,-2.446 4.543,-4.019 5.241,-4.718l8.386,-8.386l4.718,-4.193Zm-18.345,17.297c-3.494,4.193 -4.542,8.211 -3.145,12.055c1.398,4.542 6.814,10.482 16.248,17.82c9.435,7.338 14.676,11.531 15.724,12.579c11.881,12.929 24.46,28.74 37.738,47.434c13.278,18.694 19.742,32.059 19.392,40.096l-8.386,8.386l-1.572,0c5.94,2.446 11.88,4.193 17.82,5.241c-2.096,-13.976 -9.347,-30.661 -21.751,-50.054c-12.404,-19.393 -24.547,-35.728 -36.427,-49.006c-1.048,-1.398 -7.251,-6.202 -18.607,-14.414c-11.356,-8.211 -17.209,-14.938 -17.558,-20.179l8.386,-8.386l37.737,-34.068l-4.193,4.193l-33.544,30.399c0.699,5.591 6.552,12.317 17.558,20.179c11.007,7.862 17.209,12.492 18.607,13.89c13.278,15.374 26.556,33.893 39.834,55.557c13.278,21.665 19.568,39.136 18.869,52.414l-8.386,8.386c-16.074,0 -32.846,-6.814 -50.317,-20.441l-0.524,-0.525c-13.977,0.35 -25.158,-8.036 -33.544,-25.158c-7.338,-8.386 -14.501,-18.869 -21.49,-31.448l-18.868,-32.496c-4.892,-8.735 -9.435,-14.151 -13.628,-16.248c-3.494,2.796 -6.464,4.892 -8.91,6.29c-4.892,8.735 -9.085,19.043 -12.579,30.923c0,2.446 0.349,8.561 1.048,18.345c0.699,9.784 0.961,16.597 0.786,20.441c-0.174,3.844 -0.524,9.434 -1.048,16.772c-0.524,7.338 -1.747,13.54 -3.669,18.607c-1.922,5.067 -4.63,10.046 -8.124,14.938c-1.048,2.446 -2.097,4.717 -3.145,6.813l-8.386,8.386c-8.386,2.796 -14.326,-0.524 -17.82,-9.958c-15.375,-14.676 -22.538,-46.124 -21.49,-94.344c0.35,-12.579 1.311,-25.42 2.883,-38.523c1.572,-13.103 3.669,-28.303 6.29,-45.6c2.62,-17.296 4.455,-29.962 5.503,-37.999c0.349,-1.048 0.524,-1.922 0.524,-2.621c-1.398,-42.279 -0.175,-77.047 3.669,-104.302c1.398,-39.484 6.814,-68.137 16.248,-85.957l8.386,-8.386c9.085,-7.338 16.423,-6.29 22.014,3.145c1.747,-0.35 3.407,-0.088 4.979,0.786c1.572,0.873 2.883,2.184 3.931,3.931c1.048,1.747 1.922,3.581 2.621,5.503c0.698,1.922 1.223,4.281 1.572,7.076c0.349,2.795 0.611,5.241 0.786,7.338c0.175,2.096 0.262,4.892 0.262,8.386l0,7.338c0,1.397 -0.087,3.581 -0.262,6.551c-0.175,2.97 -0.262,4.63 -0.262,4.98l-3.145,40.358c-1.747,22.363 -3.407,46.909 -4.979,73.64c-1.572,26.731 -2.533,49.006 -2.883,66.827c19.917,-25.508 41.756,-50.841 65.517,-75.999l2.62,-2.621c-26.206,27.954 -48.919,55.034 -68.137,81.24l0,6.814c9.085,1.398 29.876,-14.501 62.372,-47.696c-29.351,30.749 -50.142,48.744 -62.372,53.986c0.35,5.94 0.699,11.181 1.049,15.723c1.048,-1.397 2.271,-2.795 3.669,-4.193l8.386,-8.386c12.229,-9.085 22.013,-9.609 29.351,-1.572c1.048,-1.747 8.648,-12.667 22.8,-32.758c14.151,-20.092 25.245,-35.03 33.282,-44.813l6.289,-6.29c-8.036,10.133 -18.868,24.984 -32.496,44.551c-13.627,19.568 -23.236,33.02 -28.827,40.358c2.446,3.494 4.892,8.212 7.338,14.152c1.747,-2.097 4.542,-4.892 8.386,-8.386Zm26.731,-87.006c1.747,-1.747 4.804,-5.067 9.172,-9.958c4.368,-4.892 7.425,-8.212 9.172,-9.959c-3.494,3.145 -8.211,7.949 -14.151,14.414c-5.94,6.464 -9.26,10.22 -9.959,11.268l5.766,-5.765Z" style="fill:#fff;fill-rule:nonzero;stroke:#fff;stroke-width:1.46px;stroke-linecap:butt;stroke-miterlimit:1.41421;"/></g><path id="Bulb" d="M1076.01,792.169c351.8,2.201 298.457,36.741 407.177,600.011c89.591,464.167 455.314,652.224 463.085,1106.45c9.608,561.709 -308.47,893.572 -870.262,893.572c-561.792,0 -862.491,-347.321 -862.491,-909.112c0,-463.165 360.687,-617.05 451.462,-1082.19c111.404,-570.847 81.047,-610.789 411.029,-608.726Z" style="fill:none;"/><clipPath id="_clip2"><path d="M1076.01,792.169c351.8,2.201 298.457,36.741 407.177,600.011c89.591,464.167 455.314,652.224 463.085,1106.45c9.608,561.709 -308.47,893.572 -870.262,893.572c-561.792,0 -862.491,-347.321 -862.491,-909.112c0,-463.165 360.687,-617.05 451.462,-1082.19c111.404,-570.847 81.047,-610.789 411.029,-608.726Z"/></clipPath><g clip-path="url(#_clip2)"><g id="Threads"><path d="M679.84,1356.49c0,0 398.08,150.932 793.658,8.753" style="fill:none;stroke:#fff;stroke-width:10px;"/><path d="M735.903,1081.69c0,0 335.967,75.73 685.726,-17.564" style="fill:none;stroke:#fff;stroke-width:10px;"/></g></g><path d="M1076.01,792.169c351.8,2.201 298.457,36.741 407.177,600.011c89.591,464.167 455.314,652.224 463.085,1106.45c9.608,561.709 -308.47,893.572 -870.262,893.572c-561.792,0 -862.491,-347.321 -862.491,-909.112c0,-463.165 360.687,-617.05 451.462,-1082.19c111.404,-570.847 81.047,-610.789 411.029,-608.726Z" style="fill:none;stroke:#fff;stroke-width:10px;stroke-linecap:round;"/></g></svg>